<?xml version="1.0" encoding="UTF-8" standalone="no"?>
<!-- Created with Inkscape (http://www.inkscape.org/) -->

<svg
   xmlns:dc="http://purl.org/dc/elements/1.1/"
   xmlns:cc="http://creativecommons.org/ns#"
   xmlns:rdf="http://www.w3.org/1999/02/22-rdf-syntax-ns#"
   xmlns:svg="http://www.w3.org/2000/svg"
   xmlns="http://www.w3.org/2000/svg"
   xmlns:sodipodi="http://sodipodi.sourceforge.net/DTD/sodipodi-0.dtd"
   xmlns:inkscape="http://www.inkscape.org/namespaces/inkscape"
   width="744.09448819"
   height="1052.3622047"
   id="svg2"
   version="1.1"
   inkscape:version="0.48.4 r9939"
   sodipodi:docname="array_memory_dtype.svg"
   inkscape:export-filename="/home/stefan/akad/postdoc/pydata_nyc/numpy/array_memory_dtype.png"
   inkscape:export-xdpi="100"
   inkscape:export-ydpi="100">
  <defs
     id="defs4">
    <marker
       inkscape:stockid="Arrow2Mend"
       orient="auto"
       refY="0.0"
       refX="0.0"
       id="Arrow2Mend"
       style="overflow:visible;">
      <path
         id="path3887"
         style="fill-rule:evenodd;stroke-width:0.62500000;stroke-linejoin:round;"
         d="M 8.7185878,4.0337352 L -2.2072895,0.016013256 L 8.7185884,-4.0017078 C 6.9730900,-1.6296469 6.9831476,1.6157441 8.7185878,4.0337352 z "
         transform="scale(0.6) rotate(180) translate(0,0)" />
    </marker>
    <marker
       inkscape:stockid="Arrow2Lend"
       orient="auto"
       refY="0.0"
       refX="0.0"
       id="Arrow2Lend"
       style="overflow:visible;">
      <path
         id="path3881"
         style="fill-rule:evenodd;stroke-width:0.62500000;stroke-linejoin:round;"
         d="M 8.7185878,4.0337352 L -2.2072895,0.016013256 L 8.7185884,-4.0017078 C 6.9730900,-1.6296469 6.9831476,1.6157441 8.7185878,4.0337352 z "
         transform="scale(1.1) rotate(180) translate(1,0)" />
    </marker>
    <marker
       inkscape:stockid="Arrow1Lend"
       orient="auto"
       refY="0.0"
       refX="0.0"
       id="Arrow1Lend"
       style="overflow:visible;">
      <path
         id="path3863"
         d="M 0.0,0.0 L 5.0,-5.0 L -12.5,0.0 L 5.0,5.0 L 0.0,0.0 z "
         style="fill-rule:evenodd;stroke:#000000;stroke-width:1.0pt;"
         transform="scale(0.8) rotate(180) translate(12.5,0)" />
    </marker>
    <marker
       inkscape:stockid="DotM"
       orient="auto"
       refY="0.0"
       refX="0.0"
       id="DotM"
       style="overflow:visible">
      <path
         id="path3924"
         d="M -2.5,-1.0 C -2.5,1.7600000 -4.7400000,4.0 -7.5,4.0 C -10.260000,4.0 -12.5,1.7600000 -12.5,-1.0 C -12.5,-3.7600000 -10.260000,-6.0 -7.5,-6.0 C -4.7400000,-6.0 -2.5,-3.7600000 -2.5,-1.0 z "
         style="fill-rule:evenodd;stroke:#000000;stroke-width:1.0pt"
         transform="scale(0.4) translate(7.4, 1)" />
    </marker>
  </defs>
  <sodipodi:namedview
     id="base"
     pagecolor="#ffffff"
     bordercolor="#666666"
     borderopacity="1.0"
     inkscape:pageopacity="0.0"
     inkscape:pageshadow="2"
     inkscape:zoom="0.7"
     inkscape:cx="635.63839"
     inkscape:cy="673.89183"
     inkscape:document-units="px"
     inkscape:current-layer="g3295"
     showgrid="false"
     inkscape:window-width="1600"
     inkscape:window-height="838"
     inkscape:window-x="0"
     inkscape:window-y="27"
     inkscape:window-maximized="1" />
  <metadata
     id="metadata7">
    <rdf:RDF>
      <cc:Work
         rdf:about="">
        <dc:format>image/svg+xml</dc:format>
        <dc:type
           rdf:resource="http://purl.org/dc/dcmitype/StillImage" />
        <dc:title />
      </cc:Work>
    </rdf:RDF>
  </metadata>
  <g
     inkscape:label="Layer 1"
     inkscape:groupmode="layer"
     id="layer1">
    <g
       id="g3230"
       transform="translate(1.4285714,0)">
      <path
         id="rect2985"
         d="m 43.6875,62.375 c -11.239362,0.566056 -20.125,9.80264 -20.125,21.1875 l 0,39 c 0,11.75211 9.466636,21.21875 21.21875,21.21875 l 37.5625,0 c 7.370057,0 13.856683,-3.70158 17.65625,-9.375 3.79957,5.67342 10.28619,9.375 17.65625,9.375 l 37.5625,0 c 7.37587,0 13.85627,-3.72364 17.65625,-9.40625 3.80119,5.67505 10.25495,9.40625 17.625,9.40625 l 37.5625,0 c 7.37006,0 13.85668,-3.70158 17.65625,-9.375 3.79957,5.67342 10.28619,9.375 17.65625,9.375 l 37.5625,0 c 11.75211,0 21.21875,-9.46664 21.21875,-21.21875 l 0,-39 c 0,-11.752114 -9.46664,-21.1875 -21.21875,-21.1875 l -37.5625,0 c -7.37006,0 -13.85668,3.701581 -17.65625,9.375 -3.79957,-5.673419 -10.28619,-9.375 -17.65625,-9.375 l -37.5625,0 c -0.36725,0 -0.73119,-0.01826 -1.09375,0 -6.91967,0.348501 -12.95146,3.975553 -16.5625,9.375 -3.80119,-5.665881 -10.25495,-9.375 -17.625,-9.375 l -37.5625,0 C 110.28619,62.375 103.79957,66.076581 100,71.75 96.200433,66.076581 89.713807,62.375 82.34375,62.375 l -37.5625,0 c -0.367254,0 -0.73119,-0.01826 -1.09375,0 z"
         style="fill:#a8c5d9;fill-opacity:1;stroke:#000000;stroke-opacity:1"
         inkscape:connector-curvature="0" />
      <text
         sodipodi:linespacing="125%"
         id="text3769"
         y="67.976486"
         x="63.58503"
         style="font-size:60px;font-style:normal;font-variant:normal;font-weight:normal;font-stretch:normal;line-height:125%;letter-spacing:0px;word-spacing:0px;writing-mode:tb-rl;fill:#000000;fill-opacity:1;stroke:none;font-family:Ubuntu;-inkscape-font-specification:Ubuntu"
         xml:space="preserve"><tspan
           y="63.58503"
           x="67.976486"
           id="tspan3771"
           sodipodi:role="line">0</tspan></text>
    </g>
    <rect
       style="fill:#a8c5d9;fill-opacity:1;stroke:#000000;stroke-opacity:1"
       id="rect5319"
       width="80"
       height="81.428574"
       x="171.42856"
       y="359.21924"
       ry="21.213202" />
    <rect
       ry="21.213202"
       y="359.21924"
       x="252.85713"
       height="81.428574"
       width="80"
       id="rect5321"
       style="fill:#a8c5d9;fill-opacity:1;stroke:#000000;stroke-opacity:1" />
    <text
       xml:space="preserve"
       style="font-size:60px;font-style:normal;font-variant:normal;font-weight:normal;font-stretch:normal;line-height:125%;letter-spacing:0px;word-spacing:0px;writing-mode:tb-rl;fill:#000000;fill-opacity:1;stroke:none;font-family:Ubuntu;-inkscape-font-specification:Ubuntu"
       x="211.44215"
       y="364.83353"
       id="text5325"
       sodipodi:linespacing="125%"><tspan
         sodipodi:role="line"
         id="tspan5327"
         x="363.69077"
         y="212.58492">0</tspan></text>
    <text
       xml:space="preserve"
       style="font-size:60px;font-style:normal;font-variant:normal;font-weight:normal;font-stretch:normal;line-height:125%;letter-spacing:0px;word-spacing:0px;writing-mode:tb-rl;fill:#000000;fill-opacity:1;stroke:none;font-family:Ubuntu;-inkscape-font-specification:Ubuntu"
       x="295.93073"
       y="364.80353"
       id="text5329"
       sodipodi:linespacing="125%"><tspan
         sodipodi:role="line"
         id="tspan5331"
         x="363.66077"
         y="297.07349">1</tspan></text>
    <rect
       style="fill:#a8c5d9;fill-opacity:1;stroke:#000000;stroke-opacity:1"
       id="rect5339"
       width="80"
       height="81.428574"
       x="171.42857"
       y="441.64792"
       ry="21.213202" />
    <rect
       ry="21.213202"
       y="441.64792"
       x="252.85713"
       height="81.428574"
       width="80"
       id="rect5341"
       style="fill:#a8c5d9;fill-opacity:1;stroke:#000000;stroke-opacity:1" />
    <text
       xml:space="preserve"
       style="font-size:60px;font-style:normal;font-variant:normal;font-weight:normal;font-stretch:normal;line-height:125%;letter-spacing:0px;word-spacing:0px;writing-mode:tb-rl;fill:#000000;fill-opacity:1;stroke:none;font-family:Ubuntu;-inkscape-font-specification:Ubuntu"
       x="212.04216"
       y="447.26221"
       id="text5345"
       sodipodi:linespacing="125%"><tspan
         sodipodi:role="line"
         id="tspan5347"
         x="447.26221"
         y="212.04216">4</tspan></text>
    <text
       xml:space="preserve"
       style="font-size:60px;font-style:normal;font-variant:normal;font-weight:normal;font-stretch:normal;line-height:125%;letter-spacing:0px;word-spacing:0px;writing-mode:tb-rl;fill:#000000;fill-opacity:1;stroke:none;font-family:Ubuntu;-inkscape-font-specification:Ubuntu"
       x="292.93073"
       y="447.23221"
       id="text5349"
       sodipodi:linespacing="125%"><tspan
         sodipodi:role="line"
         id="tspan5351"
         x="447.23221"
         y="292.93073">5</tspan></text>
    <rect
       style="fill:#a8c5d9;fill-opacity:1;stroke:#000000;stroke-opacity:1"
       id="rect5359"
       width="80"
       height="81.428574"
       x="171.42856"
       y="524.0766"
       ry="21.213202" />
    <rect
       ry="21.213202"
       y="524.0766"
       x="252.85709"
       height="81.428574"
       width="80"
       id="rect5361"
       style="fill:#a8c5d9;fill-opacity:1;stroke:#000000;stroke-opacity:1" />
    <text
       xml:space="preserve"
       style="font-size:60px;font-style:normal;font-variant:normal;font-weight:normal;font-stretch:normal;line-height:125%;letter-spacing:0px;word-spacing:0px;writing-mode:tb-rl;fill:#000000;fill-opacity:1;stroke:none;font-family:Ubuntu;-inkscape-font-specification:Ubuntu"
       x="211.08212"
       y="529.30084"
       id="text5363"
       sodipodi:linespacing="125%"><tspan
         sodipodi:role="line"
         id="tspan5365"
         x="529.30084"
         y="211.08212">8</tspan></text>
    <text
       xml:space="preserve"
       style="font-size:60px;font-style:normal;font-variant:normal;font-weight:normal;font-stretch:normal;line-height:125%;letter-spacing:0px;word-spacing:0px;writing-mode:tb-rl;fill:#000000;fill-opacity:1;stroke:none;font-family:Ubuntu;-inkscape-font-specification:Ubuntu"
       x="292.96066"
       y="529.66089"
       id="text5367"
       sodipodi:linespacing="125%"><tspan
         sodipodi:role="line"
         id="tspan5369"
         x="529.66089"
         y="292.96066">9</tspan></text>
    <rect
       ry="21.213202"
       y="359.21924"
       x="334.28571"
       height="81.428574"
       width="80"
       id="rect5323"
       style="fill:#a8c5d9;fill-opacity:1;stroke:#000000;stroke-opacity:1" />
    <text
       xml:space="preserve"
       style="font-size:60px;font-style:normal;font-variant:normal;font-weight:normal;font-stretch:normal;line-height:125%;letter-spacing:0px;word-spacing:0px;writing-mode:tb-rl;fill:#000000;fill-opacity:1;stroke:none;font-family:Ubuntu;-inkscape-font-specification:Ubuntu"
       x="374.83932"
       y="365.28354"
       id="text5333"
       sodipodi:linespacing="125%"><tspan
         sodipodi:role="line"
         id="tspan5335"
         x="365.28354"
         y="374.83932">2</tspan></text>
    <rect
       style="fill:#a8c5d9;fill-opacity:1;stroke:#000000;stroke-opacity:1"
       id="rect5343"
       width="80"
       height="81.428574"
       x="334.28571"
       y="441.64792"
       ry="21.213202" />
    <text
       xml:space="preserve"
       style="font-size:60px;font-style:normal;font-variant:normal;font-weight:normal;font-stretch:normal;line-height:125%;letter-spacing:0px;word-spacing:0px;writing-mode:tb-rl;fill:#000000;fill-opacity:1;stroke:none;font-family:Ubuntu;-inkscape-font-specification:Ubuntu"
       x="374.53931"
       y="446.7822"
       id="text5353"
       sodipodi:linespacing="125%"><tspan
         sodipodi:role="line"
         id="tspan5355"
         x="446.7822"
         y="374.53931">6</tspan></text>
    <g
       id="g3199">
      <rect
         ry="21.213202"
         y="524.0766"
         x="334.28568"
         height="81.428574"
         width="80"
         id="rect5371"
         style="fill:#a8c5d9;fill-opacity:1;stroke:#000000;stroke-opacity:1" />
      <text
         xml:space="preserve"
         style="font-size:60px;font-style:normal;font-variant:normal;font-weight:normal;font-stretch:normal;line-height:125%;letter-spacing:0px;word-spacing:0px;writing-mode:lr-tb;fill:#000000;fill-opacity:1;stroke:none;font-family:Ubuntu;-inkscape-font-specification:Ubuntu"
         x="339.14209"
         y="585.6109"
         id="text5373"
         sodipodi:linespacing="125%"><tspan
           sodipodi:role="line"
           id="tspan5375"
           x="339.14209"
           y="585.6109">10</tspan></text>
    </g>
    <text
       xml:space="preserve"
       style="font-size:24px;font-style:normal;font-variant:normal;font-weight:normal;font-stretch:normal;line-height:125%;letter-spacing:0px;word-spacing:0px;writing-mode:lr-tb;fill:#000000;fill-opacity:1;stroke:none;font-family:ubuntu;-inkscape-font-specification:ubuntu"
       x="-138.57143"
       y="43.790752"
       id="text6035"
       sodipodi:linespacing="125%"><tspan
         sodipodi:role="line"
         id="tspan6037"
         x="-138.57143"
         y="43.790752">Memory</tspan></text>
    <text
       xml:space="preserve"
       style="font-size:24px;font-style:normal;font-variant:normal;font-weight:normal;font-stretch:normal;line-height:125%;letter-spacing:0px;word-spacing:0px;writing-mode:lr-tb;fill:#000000;fill-opacity:1;stroke:none;font-family:ubuntu;-inkscape-font-specification:ubuntu"
       x="235.71426"
       y="639.505"
       id="text6039"
       sodipodi:linespacing="125%"><tspan
         sodipodi:role="line"
         id="tspan6041"
         x="235.71426"
         y="639.505">User view</tspan></text>
    <rect
       ry="21.213202"
       y="62.362194"
       x="-141.42859"
       height="81.428574"
       width="80"
       id="rect6092"
       style="fill:#a8c5d9;fill-opacity:1;stroke:#000000;stroke-opacity:1" />
    <text
       xml:space="preserve"
       style="font-size:60px;font-style:normal;font-variant:normal;font-weight:normal;font-stretch:normal;line-height:125%;letter-spacing:0px;word-spacing:0px;writing-mode:lr-tb;fill:#000000;fill-opacity:1;stroke:none;font-family:Ubuntu;-inkscape-font-specification:Ubuntu"
       x="-123.57421"
       y="106.31648"
       id="text6094"
       sodipodi:linespacing="125%"><tspan
         sodipodi:role="line"
         id="tspan6096"
         x="-123.57421"
         y="106.31648">...</tspan></text>
    <g
       id="g7719"
       transform="translate(695.71429,137.14286)">
      <rect
         ry="21.213202"
         y="239.50505"
         x="-140.00002"
         height="171.42856"
         width="220.00002"
         id="rect7056"
         style="fill:#fec5d9;fill-opacity:1;stroke:#000000;stroke-opacity:1" />
      <text
         sodipodi:linespacing="125%"
         id="text6164"
         y="286.64789"
         x="-115.71428"
         style="font-size:24px;font-style:normal;font-variant:normal;font-weight:normal;font-stretch:normal;line-height:125%;letter-spacing:0px;word-spacing:0px;writing-mode:lr-tb;fill:#000000;fill-opacity:1;stroke:none;font-family:ubuntu;-inkscape-font-specification:ubuntu"
         xml:space="preserve"><tspan
           id="tspan6170"
           y="286.64789"
           x="-115.71428"
           sodipodi:role="line">data: 43616176</tspan><tspan
           id="tspan6174"
           y="316.64789"
           x="-115.71428"
           sodipodi:role="line">shape: (3, 4)</tspan><tspan
           id="tspan6168"
           y="346.64789"
           x="-115.71428"
           sodipodi:role="line">strides: (32, 8)</tspan><tspan
           y="376.64789"
           x="-115.71428"
           sodipodi:role="line"
           id="tspan7805">dtype: uint64</tspan><tspan
           y="406.64789"
           x="-115.71428"
           sodipodi:role="line"
           id="tspan7792" /></text>
    </g>
    <path
       style="opacity:0.9;fill:none;stroke:#48db52;stroke-width:3;stroke-linecap:butt;stroke-linejoin:miter;stroke-miterlimit:4;stroke-opacity:1;stroke-dasharray:none;marker-end:url(#Arrow2Mend)"
       d="m 160,385.21932 c -62.461973,25.05126 -59.54531,73.96793 -1.42857,88.57143 -52.45065,11.02594 -55.73715,75.6727 2.85714,98.57143"
       id="path7077"
       inkscape:connector-curvature="0"
       sodipodi:nodetypes="ccc" />
    <path
       sodipodi:nodetypes="ccc"
       inkscape:connector-curvature="0"
       id="path7643"
       d="m 214.39399,347.92104 c 29.33696,-61.0334 63.96792,-48.11673 79.99999,-1.42857 15.31166,-55.3078 68.52985,-50.02286 82.85714,2.85714"
       style="opacity:0.9;fill:none;stroke:#db4848;stroke-width:3;stroke-linecap:butt;stroke-linejoin:miter;stroke-miterlimit:4;stroke-opacity:1;stroke-dasharray:none;marker-end:url(#Arrow2Mend)" />
    <path
       style="fill:none;stroke:#000000;stroke-width:1px;stroke-linecap:butt;stroke-linejoin:miter;stroke-opacity:1;marker-end:url(#Arrow1Lend)"
       d="m 662.85715,579.50504 27.14286,-57.14286"
       id="path7807"
       inkscape:connector-curvature="0"
       sodipodi:nodetypes="cc" />
    <text
       xml:space="preserve"
       style="font-size:24px;font-style:normal;font-variant:normal;font-weight:normal;font-stretch:normal;line-height:125%;letter-spacing:0px;word-spacing:0px;writing-mode:lr-tb;fill:#000000;fill-opacity:1;stroke:none;font-family:ubuntu;-inkscape-font-specification:ubuntu"
       x="594.28571"
       y="603.79077"
       id="text8185"
       sodipodi:linespacing="125%"><tspan
         sodipodi:role="line"
         id="tspan8187"
         x="594.28571"
         y="603.79077">8 bytes</tspan></text>
    <rect
       ry="21.213202"
       y="166.64548"
       x="552.85718"
       height="81.428574"
       width="80"
       id="rect8344"
       style="fill:#a8c5d9;fill-opacity:1;stroke:#000000;stroke-opacity:1" />
    <rect
       style="fill:#a8c5d9;fill-opacity:1;stroke:#000000;stroke-opacity:1"
       id="rect8346"
       width="80"
       height="81.428574"
       x="634.28577"
       y="166.64548"
       ry="21.213202" />
    <rect
       style="fill:#a8c5d9;fill-opacity:1;stroke:#000000;stroke-opacity:1"
       id="rect8384"
       width="80"
       height="81.428574"
       x="-60.000019"
       y="62.362194"
       ry="21.213202" />
    <text
       sodipodi:linespacing="125%"
       id="text8386"
       y="106.31648"
       x="-42.145641"
       style="font-size:60px;font-style:normal;font-variant:normal;font-weight:normal;font-stretch:normal;line-height:125%;letter-spacing:0px;word-spacing:0px;writing-mode:lr-tb;fill:#000000;fill-opacity:1;stroke:none;font-family:Ubuntu;-inkscape-font-specification:Ubuntu"
       xml:space="preserve"><tspan
         y="106.31648"
         x="-42.145641"
         id="tspan8388"
         sodipodi:role="line">...</tspan></text>
    <rect
       style="fill:#a8c5d9;fill-opacity:1;stroke:#000000;stroke-opacity:1"
       id="rect3152"
       width="80"
       height="81.428574"
       x="415.28574"
       y="359.21924"
       ry="21.213202" />
    <text
       sodipodi:linespacing="125%"
       id="text3154"
       y="365.28354"
       x="455.83936"
       style="font-size:60px;font-style:normal;font-variant:normal;font-weight:normal;font-stretch:normal;line-height:125%;letter-spacing:0px;word-spacing:0px;writing-mode:tb-rl;fill:#000000;fill-opacity:1;stroke:none;font-family:Ubuntu;-inkscape-font-specification:Ubuntu"
       xml:space="preserve"><tspan
         y="374.83932"
         x="446.28357"
         id="tspan3156"
         sodipodi:role="line">3</tspan></text>
    <g
       id="g3204">
      <rect
         style="fill:#a8c5d9;fill-opacity:1;stroke:#000000;stroke-opacity:1"
         id="rect3158"
         width="80"
         height="81.428574"
         x="415.28574"
         y="441.64792"
         ry="21.213202" />
      <text
         xml:space="preserve"
         style="font-size:60px;font-style:normal;font-variant:normal;font-weight:normal;font-stretch:normal;line-height:125%;letter-spacing:0px;word-spacing:0px;writing-mode:tb-rl;fill:#000000;fill-opacity:1;stroke:none;font-family:Ubuntu;-inkscape-font-specification:Ubuntu"
         x="455.53934"
         y="446.7822"
         id="text3160"
         sodipodi:linespacing="125%"><tspan
           sodipodi:role="line"
           id="tspan3162"
           x="527.78223"
           y="374.53931">7</tspan></text>
    </g>
    <g
       id="g3194"
       transform="translate(-16.142792,-18.571411)">
      <rect
         style="fill:#a8c5d9;fill-opacity:1;stroke:#000000;stroke-opacity:1"
         id="rect3188"
         width="80"
         height="81.428574"
         x="431.42853"
         y="542.64801"
         ry="21.213202" />
      <text
         sodipodi:linespacing="125%"
         id="text3190"
         y="604.18231"
         x="436.28494"
         style="font-size:60px;font-style:normal;font-variant:normal;font-weight:normal;font-stretch:normal;line-height:125%;letter-spacing:0px;word-spacing:0px;writing-mode:lr-tb;fill:#000000;fill-opacity:1;stroke:none;font-family:Ubuntu;-inkscape-font-specification:Ubuntu"
         xml:space="preserve"><tspan
           y="604.18231"
           x="436.28494"
           id="tspan3192"
           sodipodi:role="line">11</tspan></text>
    </g>
    <path
       inkscape:connector-curvature="0"
       id="path3237"
       d="m 351.54461,62.375 c -11.23936,0.566056 -20.125,9.80264 -20.125,21.1875 l 0,39 c 0,11.75211 9.46664,21.21875 21.21875,21.21875 l 37.5625,0 c 7.37006,0 13.85668,-3.70158 17.65625,-9.375 3.79957,5.67342 10.28619,9.375 17.65625,9.375 l 37.5625,0 c 7.37587,0 13.85627,-3.72364 17.65625,-9.40625 3.80119,5.67505 10.25495,9.40625 17.625,9.40625 l 37.5625,0 c 7.37006,0 13.85668,-3.70158 17.65625,-9.375 3.79957,5.67342 10.28619,9.375 17.65625,9.375 l 37.5625,0 c 11.75211,0 21.21875,-9.46664 21.21875,-21.21875 l 0,-39 c 0,-11.752114 -9.46664,-21.1875 -21.21875,-21.1875 l -37.5625,0 c -7.37006,0 -13.85668,3.701581 -17.65625,9.375 -3.79957,-5.673419 -10.28619,-9.375 -17.65625,-9.375 l -37.5625,0 c -0.36725,0 -0.73119,-0.01826 -1.09375,0 -6.91967,0.348501 -12.95146,3.975553 -16.5625,9.375 -3.80119,-5.665881 -10.25495,-9.375 -17.625,-9.375 l -37.5625,0 c -7.37006,0 -13.85668,3.701581 -17.65625,9.375 -3.79957,-5.673419 -10.28619,-9.375 -17.65625,-9.375 l -37.5625,0 c -0.36725,0 -0.73119,-0.01826 -1.09375,0 z"
       style="fill:#a8c5d9;fill-opacity:1;stroke:#000000;stroke-opacity:1" />
    <text
       sodipodi:linespacing="125%"
       id="text3239"
       y="67.976486"
       x="370.72787"
       style="font-size:60px;font-style:normal;font-variant:normal;font-weight:normal;font-stretch:normal;line-height:125%;letter-spacing:0px;word-spacing:0px;writing-mode:tb-rl;fill:#000000;fill-opacity:1;stroke:none;font-family:Ubuntu;-inkscape-font-specification:Ubuntu"
       xml:space="preserve"><tspan
         y="370.72787"
         x="67.976486"
         id="tspan3241"
         sodipodi:role="line">1</tspan></text>
    <path
       id="path3248"
       d="m 657.97321,62.375 c -11.23936,0.566056 -20.125,9.80264 -20.125,21.1875 l 0,39 c 0,11.75211 9.46664,21.21875 21.21875,21.21875 l 37.5625,0 c 7.37006,0 13.85668,-3.70158 17.65625,-9.375 3.79957,5.67342 10.28619,9.375 17.65625,9.375 l 37.5625,0 c 7.37587,0 13.85627,-3.72364 17.65625,-9.40625 3.80119,5.67505 10.25495,9.40625 17.625,9.40625 l 37.5625,0 c 7.37006,0 13.85668,-3.70158 17.65625,-9.375 3.79957,5.67342 10.28619,9.375 17.65625,9.375 l 37.5625,0 c 11.75211,0 21.21875,-9.46664 21.21875,-21.21875 l 0,-39 c 0,-11.752114 -9.46664,-21.1875 -21.21875,-21.1875 l -37.5625,0 c -7.37006,0 -13.85668,3.701581 -17.65625,9.375 -3.79957,-5.673419 -10.28619,-9.375 -17.65625,-9.375 l -37.5625,0 c -0.36725,0 -0.73119,-0.01826 -1.09375,0 -6.91967,0.348501 -12.95146,3.975553 -16.5625,9.375 -3.80119,-5.665881 -10.25495,-9.375 -17.625,-9.375 l -37.5625,0 c -7.37006,0 -13.85668,3.701581 -17.65625,9.375 -3.79957,-5.673419 -10.28619,-9.375 -17.65625,-9.375 l -37.5625,0 c -0.36725,0 -0.73119,-0.01826 -1.09375,0 z"
       style="fill:#a8c5d9;fill-opacity:1;stroke:#000000;stroke-opacity:1"
       inkscape:connector-curvature="0" />
    <text
       sodipodi:linespacing="125%"
       id="text3250"
       y="67.976486"
       x="677.87073"
       style="font-size:60px;font-style:normal;font-variant:normal;font-weight:normal;font-stretch:normal;line-height:125%;letter-spacing:0px;word-spacing:0px;writing-mode:tb-rl;fill:#000000;fill-opacity:1;stroke:none;font-family:Ubuntu;-inkscape-font-specification:Ubuntu"
       xml:space="preserve"><tspan
         y="677.87073"
         x="67.976486"
         id="tspan3252"
         sodipodi:role="line">2</tspan></text>
    <path
       inkscape:connector-curvature="0"
       style="fill:#a8c5d9;fill-opacity:1;stroke:#000000;stroke-opacity:1"
       d="m 97.97321,166.66071 c -11.23936,0.56606 -20.125,9.80264 -20.125,21.1875 l 0,39 c 0,11.75211 9.46664,21.21875 21.21875,21.21875 l 37.5625,0 c 7.37006,0 13.85668,-3.70158 17.65625,-9.375 3.79957,5.67342 10.28619,9.375 17.65625,9.375 l 37.5625,0 c 7.37587,0 13.85627,-3.72364 17.65625,-9.40625 3.80119,5.67505 10.25495,9.40625 17.625,9.40625 l 37.5625,0 c 7.37006,0 13.85668,-3.70158 17.65625,-9.375 3.79957,5.67342 10.28619,9.375 17.65625,9.375 l 37.5625,0 c 11.75211,0 21.21875,-9.46664 21.21875,-21.21875 l 0,-39 c 0,-11.75211 -9.46664,-21.1875 -21.21875,-21.1875 l -37.5625,0 c -7.37006,0 -13.85668,3.70159 -17.65625,9.375 -3.79957,-5.67341 -10.28619,-9.375 -17.65625,-9.375 l -37.5625,0 c -0.36725,0 -0.73119,-0.0183 -1.09375,0 -6.91967,0.34851 -12.95146,3.97556 -16.5625,9.375 -3.80119,-5.66588 -10.25495,-9.375 -17.625,-9.375 l -37.5625,0 c -7.37006,0 -13.85668,3.70159 -17.65625,9.375 -3.79957,-5.67341 -10.28619,-9.375 -17.65625,-9.375 l -37.5625,0 c -0.36725,0 -0.73119,-0.0183 -1.09375,0 z"
       id="path3257" />
    <text
       xml:space="preserve"
       style="font-size:60px;font-style:normal;font-variant:normal;font-weight:normal;font-stretch:normal;line-height:125%;letter-spacing:0px;word-spacing:0px;writing-mode:tb-rl;fill:#000000;fill-opacity:1;stroke:none;font-family:Ubuntu;-inkscape-font-specification:Ubuntu"
       x="117.87073"
       y="172.26221"
       id="text3259"
       sodipodi:linespacing="125%"><tspan
         sodipodi:role="line"
         id="tspan3261"
         x="172.26221"
         y="117.87073">3</tspan></text>
    <g
       id="g3300">
      <rect
         ry="21.213202"
         y="166.64548"
         x="390"
         height="81.428574"
         width="80"
         id="rect3263"
         style="fill:#a8c5d9;fill-opacity:1;stroke:#000000;stroke-opacity:1" />
      <text
         xml:space="preserve"
         style="font-size:60px;font-style:normal;font-variant:normal;font-weight:normal;font-stretch:normal;line-height:125%;letter-spacing:0px;word-spacing:0px;writing-mode:lr-tb;fill:#000000;fill-opacity:1;stroke:none;font-family:Ubuntu;-inkscape-font-specification:Ubuntu"
         x="407.85437"
         y="210.59976"
         id="text3265"
         sodipodi:linespacing="125%"><tspan
           sodipodi:role="line"
           id="tspan3267"
           x="407.85437"
           y="210.59976">...</tspan></text>
    </g>
    <g
       id="g3295"
       transform="translate(3.0517578e-5,0)">
      <rect
         style="fill:#a8c5d9;fill-opacity:1;stroke:#000000;stroke-opacity:1"
         id="rect3269"
         width="80"
         height="81.428574"
         x="471.42856"
         y="166.64548"
         ry="21.213202" />
      <text
         sodipodi:linespacing="125%"
         id="text3271"
         y="210.59976"
         x="489.28293"
         style="font-size:60px;font-style:normal;font-variant:normal;font-weight:normal;font-stretch:normal;line-height:125%;letter-spacing:0px;word-spacing:0px;writing-mode:lr-tb;fill:#000000;fill-opacity:1;stroke:none;font-family:Ubuntu;-inkscape-font-specification:Ubuntu"
         xml:space="preserve"><tspan
           y="210.59976"
           x="489.28293"
           id="tspan3273"
           sodipodi:role="line">...</tspan></text>
    </g>
  </g>
</svg>
