<?xml version="1.0" encoding="UTF-8" standalone="no"?>
<!-- Created with Inkscape (http://www.inkscape.org/) -->

<svg
   xmlns:dc="http://purl.org/dc/elements/1.1/"
   xmlns:cc="http://creativecommons.org/ns#"
   xmlns:rdf="http://www.w3.org/1999/02/22-rdf-syntax-ns#"
   xmlns:svg="http://www.w3.org/2000/svg"
   xmlns="http://www.w3.org/2000/svg"
   xmlns:sodipodi="http://sodipodi.sourceforge.net/DTD/sodipodi-0.dtd"
   xmlns:inkscape="http://www.inkscape.org/namespaces/inkscape"
   width="744.09448819"
   height="1052.3622047"
   id="svg2"
   version="1.1"
   inkscape:version="0.48.3.1 r9886"
   sodipodi:docname="array_memory_dtype.svg"
   inkscape:export-filename="/home/stefan/akad/postdoc/pydata_nyc/numpy/array_memory_dtype.png"
   inkscape:export-xdpi="100"
   inkscape:export-ydpi="100">
  <defs
     id="defs4">
    <marker
       inkscape:stockid="Arrow2Mend"
       orient="auto"
       refY="0.0"
       refX="0.0"
       id="Arrow2Mend"
       style="overflow:visible;">
      <path
         id="path3887"
         style="fill-rule:evenodd;stroke-width:0.62500000;stroke-linejoin:round;"
         d="M 8.7185878,4.0337352 L -2.2072895,0.016013256 L 8.7185884,-4.0017078 C 6.9730900,-1.6296469 6.9831476,1.6157441 8.7185878,4.0337352 z "
         transform="scale(0.6) rotate(180) translate(0,0)" />
    </marker>
    <marker
       inkscape:stockid="Arrow2Lend"
       orient="auto"
       refY="0.0"
       refX="0.0"
       id="Arrow2Lend"
       style="overflow:visible;">
      <path
         id="path3881"
         style="fill-rule:evenodd;stroke-width:0.62500000;stroke-linejoin:round;"
         d="M 8.7185878,4.0337352 L -2.2072895,0.016013256 L 8.7185884,-4.0017078 C 6.9730900,-1.6296469 6.9831476,1.6157441 8.7185878,4.0337352 z "
         transform="scale(1.1) rotate(180) translate(1,0)" />
    </marker>
    <marker
       inkscape:stockid="Arrow1Lend"
       orient="auto"
       refY="0.0"
       refX="0.0"
       id="Arrow1Lend"
       style="overflow:visible;">
      <path
         id="path3863"
         d="M 0.0,0.0 L 5.0,-5.0 L -12.5,0.0 L 5.0,5.0 L 0.0,0.0 z "
         style="fill-rule:evenodd;stroke:#000000;stroke-width:1.0pt;"
         transform="scale(0.8) rotate(180) translate(12.5,0)" />
    </marker>
    <marker
       inkscape:stockid="DotM"
       orient="auto"
       refY="0.0"
       refX="0.0"
       id="DotM"
       style="overflow:visible">
      <path
         id="path3924"
         d="M -2.5,-1.0 C -2.5,1.7600000 -4.7400000,4.0 -7.5,4.0 C -10.260000,4.0 -12.5,1.7600000 -12.5,-1.0 C -12.5,-3.7600000 -10.260000,-6.0 -7.5,-6.0 C -4.7400000,-6.0 -2.5,-3.7600000 -2.5,-1.0 z "
         style="fill-rule:evenodd;stroke:#000000;stroke-width:1.0pt"
         transform="scale(0.4) translate(7.4, 1)" />
    </marker>
  </defs>
  <sodipodi:namedview
     id="base"
     pagecolor="#ffffff"
     bordercolor="#666666"
     borderopacity="1.0"
     inkscape:pageopacity="0.0"
     inkscape:pageshadow="2"
     inkscape:zoom="0.7"
     inkscape:cx="279.40605"
     inkscape:cy="445.3204"
     inkscape:document-units="px"
     inkscape:current-layer="layer1"
     showgrid="false"
     inkscape:window-width="1280"
     inkscape:window-height="723"
     inkscape:window-x="0"
     inkscape:window-y="24"
     inkscape:window-maximized="1" />
  <metadata
     id="metadata7">
    <rdf:RDF>
      <cc:Work
         rdf:about="">
        <dc:format>image/svg+xml</dc:format>
        <dc:type
           rdf:resource="http://purl.org/dc/dcmitype/StillImage" />
        <dc:title></dc:title>
      </cc:Work>
    </rdf:RDF>
  </metadata>
  <g
     inkscape:label="Layer 1"
     inkscape:groupmode="layer"
     id="layer1">
    <g
       id="g8267">
      <path
         id="rect2985"
         d="M 43.6875 62.375 C 32.448138 62.941056 23.5625 72.17764 23.5625 83.5625 L 23.5625 122.5625 C 23.5625 134.31461 33.029136 143.78125 44.78125 143.78125 L 82.34375 143.78125 C 89.713807 143.78125 96.200433 140.07967 100 134.40625 C 103.79957 140.07967 110.28619 143.78125 117.65625 143.78125 L 155.21875 143.78125 C 166.97086 143.78125 176.4375 134.31461 176.4375 122.5625 L 176.4375 83.5625 C 176.4375 71.810386 166.97086 62.375 155.21875 62.375 L 117.65625 62.375 C 110.28619 62.375 103.79957 66.076581 100 71.75 C 96.200433 66.076581 89.713807 62.375 82.34375 62.375 L 44.78125 62.375 C 44.413996 62.375 44.05006 62.35674 43.6875 62.375 z "
         style="fill:#a8c5d9;fill-opacity:1;stroke:#000000;stroke-opacity:1" />
      <text
         sodipodi:linespacing="125%"
         id="text3769"
         y="67.976486"
         x="63.58503"
         style="font-size:60px;font-style:normal;font-variant:normal;font-weight:normal;font-stretch:normal;line-height:125%;letter-spacing:0px;word-spacing:0px;writing-mode:tb-rl;fill:#000000;fill-opacity:1;stroke:none;font-family:Ubuntu;-inkscape-font-specification:Ubuntu"
         xml:space="preserve"><tspan
           y="64.299309"
           x="67.262207"
           id="tspan3771"
           sodipodi:role="line">0</tspan></text>
    </g>
    <g
       transform="translate(114.28558,145.95237)"
       id="g5315">
      <g
         transform="translate(15.714408,-14.809624)"
         id="g5317">
        <rect
           style="fill:#a8c5d9;fill-opacity:1;stroke:#000000;stroke-opacity:1"
           id="rect5319"
           width="80"
           height="81.428574"
           x="41.428574"
           y="228.07648"
           ry="21.213202" />
        <rect
           ry="21.213202"
           y="228.07648"
           x="122.85714"
           height="81.428574"
           width="80"
           id="rect5321"
           style="fill:#a8c5d9;fill-opacity:1;stroke:#000000;stroke-opacity:1" />
        <rect
           ry="21.213202"
           y="228.07648"
           x="204.28572"
           height="81.428574"
           width="80"
           id="rect5323"
           style="fill:#a8c5d9;fill-opacity:1;stroke:#000000;stroke-opacity:1" />
        <text
           xml:space="preserve"
           style="font-size:60px;font-style:normal;font-variant:normal;font-weight:normal;font-stretch:normal;line-height:125%;letter-spacing:0px;word-spacing:0px;writing-mode:tb-rl;fill:#000000;fill-opacity:1;stroke:none;font-family:Ubuntu;-inkscape-font-specification:Ubuntu"
           x="81.442162"
           y="233.69077"
           id="text5325"
           sodipodi:linespacing="125%"><tspan
             sodipodi:role="line"
             id="tspan5327"
             x="233.69077"
             y="81.442162">0</tspan></text>
        <text
           xml:space="preserve"
           style="font-size:60px;font-style:normal;font-variant:normal;font-weight:normal;font-stretch:normal;line-height:125%;letter-spacing:0px;word-spacing:0px;writing-mode:tb-rl;fill:#000000;fill-opacity:1;stroke:none;font-family:Ubuntu;-inkscape-font-specification:Ubuntu"
           x="165.93074"
           y="233.66077"
           id="text5329"
           sodipodi:linespacing="125%"><tspan
             sodipodi:role="line"
             id="tspan5331"
             x="233.66077"
             y="165.93074">1</tspan></text>
        <text
           xml:space="preserve"
           style="font-size:60px;font-style:normal;font-variant:normal;font-weight:normal;font-stretch:normal;line-height:125%;letter-spacing:0px;word-spacing:0px;writing-mode:tb-rl;fill:#000000;fill-opacity:1;stroke:none;font-family:Ubuntu;-inkscape-font-specification:Ubuntu"
           x="244.83932"
           y="234.14078"
           id="text5333"
           sodipodi:linespacing="125%"><tspan
             sodipodi:role="line"
             id="tspan5335"
             x="234.14078"
             y="244.83932">2</tspan></text>
      </g>
      <g
         transform="translate(-245.71416,-115.23809)"
         id="g5337">
        <rect
           style="fill:#a8c5d9;fill-opacity:1;stroke:#000000;stroke-opacity:1"
           id="rect5339"
           width="80"
           height="81.428574"
           x="302.85715"
           y="410.93362"
           ry="21.213202" />
        <rect
           ry="21.213202"
           y="410.93362"
           x="384.28571"
           height="81.428574"
           width="80"
           id="rect5341"
           style="fill:#a8c5d9;fill-opacity:1;stroke:#000000;stroke-opacity:1" />
        <rect
           style="fill:#a8c5d9;fill-opacity:1;stroke:#000000;stroke-opacity:1"
           id="rect5343"
           width="80"
           height="81.428574"
           x="465.71429"
           y="410.93362"
           ry="21.213202" />
        <text
           xml:space="preserve"
           style="font-size:60px;font-style:normal;font-variant:normal;font-weight:normal;font-stretch:normal;line-height:125%;letter-spacing:0px;word-spacing:0px;writing-mode:tb-rl;fill:#000000;fill-opacity:1;stroke:none;font-family:Ubuntu;-inkscape-font-specification:Ubuntu"
           x="343.47073"
           y="416.54791"
           id="text5345"
           sodipodi:linespacing="125%"><tspan
             sodipodi:role="line"
             id="tspan5347"
             x="416.54791"
             y="343.47073">3</tspan></text>
        <text
           xml:space="preserve"
           style="font-size:60px;font-style:normal;font-variant:normal;font-weight:normal;font-stretch:normal;line-height:125%;letter-spacing:0px;word-spacing:0px;writing-mode:tb-rl;fill:#000000;fill-opacity:1;stroke:none;font-family:Ubuntu;-inkscape-font-specification:Ubuntu"
           x="424.35931"
           y="416.51791"
           id="text5349"
           sodipodi:linespacing="125%"><tspan
             sodipodi:role="line"
             id="tspan5351"
             x="416.51791"
             y="424.35931">4</tspan></text>
        <text
           xml:space="preserve"
           style="font-size:60px;font-style:normal;font-variant:normal;font-weight:normal;font-stretch:normal;line-height:125%;letter-spacing:0px;word-spacing:0px;writing-mode:tb-rl;fill:#000000;fill-opacity:1;stroke:none;font-family:Ubuntu;-inkscape-font-specification:Ubuntu"
           x="505.9679"
           y="416.0679"
           id="text5353"
           sodipodi:linespacing="125%"><tspan
             sodipodi:role="line"
             id="tspan5355"
             x="416.0679"
             y="505.9679">5</tspan></text>
      </g>
      <g
         transform="translate(-489.9999,-32.809423)"
         id="g5357">
        <rect
           style="fill:#a8c5d9;fill-opacity:1;stroke:#000000;stroke-opacity:1"
           id="rect5359"
           width="80"
           height="81.428574"
           x="547.14288"
           y="410.93362"
           ry="21.213202" />
        <rect
           ry="21.213202"
           y="410.93362"
           x="628.57141"
           height="81.428574"
           width="80"
           id="rect5361"
           style="fill:#a8c5d9;fill-opacity:1;stroke:#000000;stroke-opacity:1" />
        <text
           xml:space="preserve"
           style="font-size:60px;font-style:normal;font-variant:normal;font-weight:normal;font-stretch:normal;line-height:125%;letter-spacing:0px;word-spacing:0px;writing-mode:tb-rl;fill:#000000;fill-opacity:1;stroke:none;font-family:Ubuntu;-inkscape-font-specification:Ubuntu"
           x="586.79645"
           y="416.1579"
           id="text5363"
           sodipodi:linespacing="125%"><tspan
             sodipodi:role="line"
             id="tspan5365"
             x="416.1579"
             y="586.79645">6</tspan></text>
        <text
           xml:space="preserve"
           style="font-size:60px;font-style:normal;font-variant:normal;font-weight:normal;font-stretch:normal;line-height:125%;letter-spacing:0px;word-spacing:0px;writing-mode:tb-rl;fill:#000000;fill-opacity:1;stroke:none;font-family:Ubuntu;-inkscape-font-specification:Ubuntu"
           x="668.67499"
           y="416.51791"
           id="text5367"
           sodipodi:linespacing="125%"><tspan
             sodipodi:role="line"
             id="tspan5369"
             x="416.51791"
             y="668.67499">7</tspan></text>
        <rect
           style="fill:#a8c5d9;fill-opacity:1;stroke:#000000;stroke-opacity:1"
           id="rect5371"
           width="80"
           height="81.428574"
           x="710"
           y="410.93362"
           ry="21.213202" />
        <text
           sodipodi:linespacing="125%"
           id="text5373"
           y="416.54791"
           x="750.01361"
           style="font-size:60px;font-style:normal;font-variant:normal;font-weight:normal;font-stretch:normal;line-height:125%;letter-spacing:0px;word-spacing:0px;writing-mode:tb-rl;fill:#000000;fill-opacity:1;stroke:none;font-family:Ubuntu;-inkscape-font-specification:Ubuntu"
           xml:space="preserve"><tspan
             y="750.01361"
             x="416.54791"
             id="tspan5375"
             sodipodi:role="line">8</tspan></text>
      </g>
    </g>
    <text
       xml:space="preserve"
       style="font-size:24px;font-style:normal;font-variant:normal;font-weight:normal;font-stretch:normal;line-height:125%;letter-spacing:0px;word-spacing:0px;writing-mode:lr-tb;fill:#000000;fill-opacity:1;stroke:none;font-family:ubuntu;-inkscape-font-specification:ubuntu"
       x="-138.57143"
       y="43.790752"
       id="text6035"
       sodipodi:linespacing="125%"><tspan
         sodipodi:role="line"
         id="tspan6037"
         x="-138.57143"
         y="43.790752">Memory</tspan></text>
    <text
       xml:space="preserve"
       style="font-size:24px;font-style:normal;font-variant:normal;font-weight:normal;font-stretch:normal;line-height:125%;letter-spacing:0px;word-spacing:0px;writing-mode:lr-tb;fill:#000000;fill-opacity:1;stroke:none;font-family:ubuntu;-inkscape-font-specification:ubuntu"
       x="235.71426"
       y="639.505"
       id="text6039"
       sodipodi:linespacing="125%"><tspan
         sodipodi:role="line"
         id="tspan6041"
         x="235.71426"
         y="639.505">User view</tspan></text>
    <rect
       ry="21.213202"
       y="62.362194"
       x="-141.42859"
       height="81.428574"
       width="80"
       id="rect6092"
       style="fill:#a8c5d9;fill-opacity:1;stroke:#000000;stroke-opacity:1" />
    <text
       xml:space="preserve"
       style="font-size:60px;font-style:normal;font-variant:normal;font-weight:normal;font-stretch:normal;line-height:125%;letter-spacing:0px;word-spacing:0px;writing-mode:lr-tb;fill:#000000;fill-opacity:1;stroke:none;font-family:Ubuntu;-inkscape-font-specification:Ubuntu"
       x="-123.57421"
       y="106.31648"
       id="text6094"
       sodipodi:linespacing="125%"><tspan
         sodipodi:role="line"
         id="tspan6096"
         x="-123.57421"
         y="106.31648">...</tspan></text>
    <g
       id="g7719"
       transform="translate(610,125.71429)">
      <rect
         ry="21.213202"
         y="239.50505"
         x="-140.00002"
         height="171.42856"
         width="220.00002"
         id="rect7056"
         style="fill:#fec5d9;fill-opacity:1;stroke:#000000;stroke-opacity:1" />
      <text
         sodipodi:linespacing="125%"
         id="text6164"
         y="286.64789"
         x="-115.71428"
         style="font-size:24px;font-style:normal;font-variant:normal;font-weight:normal;font-stretch:normal;line-height:125%;letter-spacing:0px;word-spacing:0px;writing-mode:lr-tb;fill:#000000;fill-opacity:1;stroke:none;font-family:ubuntu;-inkscape-font-specification:ubuntu"
         xml:space="preserve"><tspan
           id="tspan6170"
           y="286.64789"
           x="-115.71428"
           sodipodi:role="line">data: 43616176</tspan><tspan
           id="tspan6174"
           y="316.64789"
           x="-115.71428"
           sodipodi:role="line">shape: (3, 3)</tspan><tspan
           id="tspan6168"
           y="346.64789"
           x="-115.71428"
           sodipodi:role="line">strides: (6, 2)</tspan><tspan
           y="376.64789"
           x="-115.71428"
           sodipodi:role="line"
           id="tspan7805">dtype: uint16</tspan><tspan
           y="406.64789"
           x="-115.71428"
           sodipodi:role="line"
           id="tspan7792" /></text>
    </g>
    <path
       style="opacity:0.9;fill:none;stroke:#48db52;stroke-width:3;stroke-linecap:butt;stroke-linejoin:miter;stroke-miterlimit:4;stroke-opacity:1;stroke-dasharray:none;marker-end:url(#Arrow2Mend)"
       d="m 160,385.21932 c -62.461973,25.05126 -59.54531,73.96793 -1.42857,88.57143 -52.45065,11.02594 -55.73715,75.6727 2.85714,98.57143"
       id="path7077"
       inkscape:connector-curvature="0"
       sodipodi:nodetypes="ccc" />
    <path
       sodipodi:nodetypes="ccc"
       inkscape:connector-curvature="0"
       id="path7643"
       d="m 214.39399,347.92104 c 29.33696,-61.0334 63.96792,-48.11673 79.99999,-1.42857 15.31166,-55.3078 68.52985,-50.02286 82.85714,2.85714"
       style="opacity:0.9;fill:none;stroke:#db4848;stroke-width:3;stroke-linecap:butt;stroke-linejoin:miter;stroke-miterlimit:4;stroke-opacity:1;stroke-dasharray:none;marker-end:url(#Arrow2Mend)" />
    <path
       style="fill:none;stroke:#000000;stroke-width:1px;stroke-linecap:butt;stroke-linejoin:miter;stroke-opacity:1;marker-end:url(#Arrow1Lend)"
       d="m 577.14286,568.07647 27.14286,-57.14286"
       id="path7807"
       inkscape:connector-curvature="0"
       sodipodi:nodetypes="cc" />
    <text
       xml:space="preserve"
       style="font-size:24px;font-style:normal;font-variant:normal;font-weight:normal;font-stretch:normal;line-height:125%;letter-spacing:0px;word-spacing:0px;writing-mode:lr-tb;fill:#000000;fill-opacity:1;stroke:none;font-family:ubuntu;-inkscape-font-specification:ubuntu"
       x="508.57141"
       y="592.36218"
       id="text8185"
       sodipodi:linespacing="125%"><tspan
         sodipodi:role="line"
         id="tspan8187"
         x="508.57141"
         y="592.36218">2 bytes</tspan></text>
    <g
       id="g8272"
       transform="translate(158.57143,0)">
      <path
         style="fill:#a8c5d9;fill-opacity:1;stroke:#000000;stroke-opacity:1"
         d="m 43.6875,62.375 c -11.239362,0.566056 -20.125,9.80264 -20.125,21.1875 l 0,39 c 0,11.75211 9.466636,21.21875 21.21875,21.21875 l 37.5625,0 c 7.370057,0 13.856683,-3.70158 17.65625,-9.375 3.79957,5.67342 10.28619,9.375 17.65625,9.375 l 37.5625,0 c 11.75211,0 21.21875,-9.46664 21.21875,-21.21875 l 0,-39 c 0,-11.752114 -9.46664,-21.1875 -21.21875,-21.1875 l -37.5625,0 C 110.28619,62.375 103.79957,66.076581 100,71.75 96.200433,66.076581 89.713807,62.375 82.34375,62.375 l -37.5625,0 c -0.367254,0 -0.73119,-0.01826 -1.09375,0 z"
         id="path8274"
         inkscape:connector-curvature="0" />
      <text
         xml:space="preserve"
         style="font-size:60px;font-style:normal;font-variant:normal;font-weight:normal;font-stretch:normal;line-height:125%;letter-spacing:0px;word-spacing:0px;writing-mode:tb-rl;fill:#000000;fill-opacity:1;stroke:none;font-family:Ubuntu;-inkscape-font-specification:Ubuntu"
         x="63.58503"
         y="67.976486"
         id="text8276"
         sodipodi:linespacing="125%"><tspan
           sodipodi:role="line"
           id="tspan8278"
           x="67.976486"
           y="63.58503">1</tspan></text>
    </g>
    <g
       id="g8280"
       transform="translate(315.71429,0)">
      <path
         style="fill:#a8c5d9;fill-opacity:1;stroke:#000000;stroke-opacity:1"
         d="m 43.6875,62.375 c -11.239362,0.566056 -20.125,9.80264 -20.125,21.1875 l 0,39 c 0,11.75211 9.466636,21.21875 21.21875,21.21875 l 37.5625,0 c 7.370057,0 13.856683,-3.70158 17.65625,-9.375 3.79957,5.67342 10.28619,9.375 17.65625,9.375 l 37.5625,0 c 11.75211,0 21.21875,-9.46664 21.21875,-21.21875 l 0,-39 c 0,-11.752114 -9.46664,-21.1875 -21.21875,-21.1875 l -37.5625,0 C 110.28619,62.375 103.79957,66.076581 100,71.75 96.200433,66.076581 89.713807,62.375 82.34375,62.375 l -37.5625,0 c -0.367254,0 -0.73119,-0.01826 -1.09375,0 z"
         id="path8282"
         inkscape:connector-curvature="0" />
      <text
         xml:space="preserve"
         style="font-size:60px;font-style:normal;font-variant:normal;font-weight:normal;font-stretch:normal;line-height:125%;letter-spacing:0px;word-spacing:0px;writing-mode:tb-rl;fill:#000000;fill-opacity:1;stroke:none;font-family:Ubuntu;-inkscape-font-specification:Ubuntu"
         x="63.58503"
         y="67.976486"
         id="text8284"
         sodipodi:linespacing="125%"><tspan
           sodipodi:role="line"
           id="tspan8286"
           x="67.976486"
           y="63.58503">2</tspan></text>
    </g>
    <g
       transform="translate(474.28572,0)"
       id="g8288">
      <path
         inkscape:connector-curvature="0"
         id="path8290"
         d="m 43.6875,62.375 c -11.239362,0.566056 -20.125,9.80264 -20.125,21.1875 l 0,39 c 0,11.75211 9.466636,21.21875 21.21875,21.21875 l 37.5625,0 c 7.370057,0 13.856683,-3.70158 17.65625,-9.375 3.79957,5.67342 10.28619,9.375 17.65625,9.375 l 37.5625,0 c 11.75211,0 21.21875,-9.46664 21.21875,-21.21875 l 0,-39 c 0,-11.752114 -9.46664,-21.1875 -21.21875,-21.1875 l -37.5625,0 C 110.28619,62.375 103.79957,66.076581 100,71.75 96.200433,66.076581 89.713807,62.375 82.34375,62.375 l -37.5625,0 c -0.367254,0 -0.73119,-0.01826 -1.09375,0 z"
         style="fill:#a8c5d9;fill-opacity:1;stroke:#000000;stroke-opacity:1" />
      <text
         sodipodi:linespacing="125%"
         id="text8292"
         y="67.976486"
         x="63.58503"
         style="font-size:60px;font-style:normal;font-variant:normal;font-weight:normal;font-stretch:normal;line-height:125%;letter-spacing:0px;word-spacing:0px;writing-mode:tb-rl;fill:#000000;fill-opacity:1;stroke:none;font-family:Ubuntu;-inkscape-font-specification:Ubuntu"
         xml:space="preserve"><tspan
           y="63.58503"
           x="67.976486"
           id="tspan8294"
           sodipodi:role="line">3</tspan></text>
    </g>
    <g
       id="g8296"
       transform="translate(0,88.571429)">
      <path
         style="fill:#a8c5d9;fill-opacity:1;stroke:#000000;stroke-opacity:1"
         d="m 43.6875,62.375 c -11.239362,0.566056 -20.125,9.80264 -20.125,21.1875 l 0,39 c 0,11.75211 9.466636,21.21875 21.21875,21.21875 l 37.5625,0 c 7.370057,0 13.856683,-3.70158 17.65625,-9.375 3.79957,5.67342 10.28619,9.375 17.65625,9.375 l 37.5625,0 c 11.75211,0 21.21875,-9.46664 21.21875,-21.21875 l 0,-39 c 0,-11.752114 -9.46664,-21.1875 -21.21875,-21.1875 l -37.5625,0 C 110.28619,62.375 103.79957,66.076581 100,71.75 96.200433,66.076581 89.713807,62.375 82.34375,62.375 l -37.5625,0 c -0.367254,0 -0.73119,-0.01826 -1.09375,0 z"
         id="path8298"
         inkscape:connector-curvature="0" />
      <text
         xml:space="preserve"
         style="font-size:60px;font-style:normal;font-variant:normal;font-weight:normal;font-stretch:normal;line-height:125%;letter-spacing:0px;word-spacing:0px;writing-mode:tb-rl;fill:#000000;fill-opacity:1;stroke:none;font-family:Ubuntu;-inkscape-font-specification:Ubuntu"
         x="63.58503"
         y="67.976486"
         id="text8300"
         sodipodi:linespacing="125%"><tspan
           sodipodi:role="line"
           id="tspan8302"
           x="67.976486"
           y="63.58503">5</tspan></text>
    </g>
    <g
       transform="translate(158.57143,88.571429)"
       id="g8304">
      <path
         inkscape:connector-curvature="0"
         id="path8306"
         d="m 43.6875,62.375 c -11.239362,0.566056 -20.125,9.80264 -20.125,21.1875 l 0,39 c 0,11.75211 9.466636,21.21875 21.21875,21.21875 l 37.5625,0 c 7.370057,0 13.856683,-3.70158 17.65625,-9.375 3.79957,5.67342 10.28619,9.375 17.65625,9.375 l 37.5625,0 c 11.75211,0 21.21875,-9.46664 21.21875,-21.21875 l 0,-39 c 0,-11.752114 -9.46664,-21.1875 -21.21875,-21.1875 l -37.5625,0 C 110.28619,62.375 103.79957,66.076581 100,71.75 96.200433,66.076581 89.713807,62.375 82.34375,62.375 l -37.5625,0 c -0.367254,0 -0.73119,-0.01826 -1.09375,0 z"
         style="fill:#a8c5d9;fill-opacity:1;stroke:#000000;stroke-opacity:1" />
      <text
         sodipodi:linespacing="125%"
         id="text8308"
         y="67.976486"
         x="63.58503"
         style="font-size:60px;font-style:normal;font-variant:normal;font-weight:normal;font-stretch:normal;line-height:125%;letter-spacing:0px;word-spacing:0px;writing-mode:tb-rl;fill:#000000;fill-opacity:1;stroke:none;font-family:Ubuntu;-inkscape-font-specification:Ubuntu"
         xml:space="preserve"><tspan
           y="63.58503"
           x="67.976486"
           id="tspan8310"
           sodipodi:role="line">6</tspan></text>
    </g>
    <g
       transform="translate(315.71429,88.571429)"
       id="g8312">
      <path
         inkscape:connector-curvature="0"
         id="path8314"
         d="m 43.6875,62.375 c -11.239362,0.566056 -20.125,9.80264 -20.125,21.1875 l 0,39 c 0,11.75211 9.466636,21.21875 21.21875,21.21875 l 37.5625,0 c 7.370057,0 13.856683,-3.70158 17.65625,-9.375 3.79957,5.67342 10.28619,9.375 17.65625,9.375 l 37.5625,0 c 11.75211,0 21.21875,-9.46664 21.21875,-21.21875 l 0,-39 c 0,-11.752114 -9.46664,-21.1875 -21.21875,-21.1875 l -37.5625,0 C 110.28619,62.375 103.79957,66.076581 100,71.75 96.200433,66.076581 89.713807,62.375 82.34375,62.375 l -37.5625,0 c -0.367254,0 -0.73119,-0.01826 -1.09375,0 z"
         style="fill:#a8c5d9;fill-opacity:1;stroke:#000000;stroke-opacity:1" />
      <text
         sodipodi:linespacing="125%"
         id="text8316"
         y="67.976486"
         x="63.58503"
         style="font-size:60px;font-style:normal;font-variant:normal;font-weight:normal;font-stretch:normal;line-height:125%;letter-spacing:0px;word-spacing:0px;writing-mode:tb-rl;fill:#000000;fill-opacity:1;stroke:none;font-family:Ubuntu;-inkscape-font-specification:Ubuntu"
         xml:space="preserve"><tspan
           y="63.58503"
           x="67.976486"
           id="tspan8318"
           sodipodi:role="line">7</tspan></text>
    </g>
    <g
       id="g8320"
       transform="translate(474.28572,88.571429)">
      <path
         style="fill:#a8c5d9;fill-opacity:1;stroke:#000000;stroke-opacity:1"
         d="m 43.6875,62.375 c -11.239362,0.566056 -20.125,9.80264 -20.125,21.1875 l 0,39 c 0,11.75211 9.466636,21.21875 21.21875,21.21875 l 37.5625,0 c 7.370057,0 13.856683,-3.70158 17.65625,-9.375 3.79957,5.67342 10.28619,9.375 17.65625,9.375 l 37.5625,0 c 11.75211,0 21.21875,-9.46664 21.21875,-21.21875 l 0,-39 c 0,-11.752114 -9.46664,-21.1875 -21.21875,-21.1875 l -37.5625,0 C 110.28619,62.375 103.79957,66.076581 100,71.75 96.200433,66.076581 89.713807,62.375 82.34375,62.375 l -37.5625,0 c -0.367254,0 -0.73119,-0.01826 -1.09375,0 z"
         id="path8322"
         inkscape:connector-curvature="0" />
      <text
         xml:space="preserve"
         style="font-size:60px;font-style:normal;font-variant:normal;font-weight:normal;font-stretch:normal;line-height:125%;letter-spacing:0px;word-spacing:0px;writing-mode:tb-rl;fill:#000000;fill-opacity:1;stroke:none;font-family:Ubuntu;-inkscape-font-specification:Ubuntu"
         x="63.58503"
         y="67.976486"
         id="text8324"
         sodipodi:linespacing="125%"><tspan
           sodipodi:role="line"
           id="tspan8326"
           x="67.976486"
           y="63.58503">8</tspan></text>
    </g>
    <g
       id="g8328"
       transform="translate(632.85715,0)">
      <path
         style="fill:#a8c5d9;fill-opacity:1;stroke:#000000;stroke-opacity:1"
         d="m 43.6875,62.375 c -11.239362,0.566056 -20.125,9.80264 -20.125,21.1875 l 0,39 c 0,11.75211 9.466636,21.21875 21.21875,21.21875 l 37.5625,0 c 7.370057,0 13.856683,-3.70158 17.65625,-9.375 3.79957,5.67342 10.28619,9.375 17.65625,9.375 l 37.5625,0 c 11.75211,0 21.21875,-9.46664 21.21875,-21.21875 l 0,-39 c 0,-11.752114 -9.46664,-21.1875 -21.21875,-21.1875 l -37.5625,0 C 110.28619,62.375 103.79957,66.076581 100,71.75 96.200433,66.076581 89.713807,62.375 82.34375,62.375 l -37.5625,0 c -0.367254,0 -0.73119,-0.01826 -1.09375,0 z"
         id="path8330"
         inkscape:connector-curvature="0" />
      <text
         xml:space="preserve"
         style="font-size:60px;font-style:normal;font-variant:normal;font-weight:normal;font-stretch:normal;line-height:125%;letter-spacing:0px;word-spacing:0px;writing-mode:tb-rl;fill:#000000;fill-opacity:1;stroke:none;font-family:Ubuntu;-inkscape-font-specification:Ubuntu"
         x="63.58503"
         y="67.976486"
         id="text8332"
         sodipodi:linespacing="125%"><tspan
           sodipodi:role="line"
           id="tspan8334"
           x="67.976486"
           y="63.58503">4</tspan></text>
    </g>
    <rect
       ry="21.213202"
       y="150.93121"
       x="657.14288"
       height="81.428574"
       width="80"
       id="rect8344"
       style="fill:#a8c5d9;fill-opacity:1;stroke:#000000;stroke-opacity:1" />
    <rect
       style="fill:#a8c5d9;fill-opacity:1;stroke:#000000;stroke-opacity:1"
       id="rect8346"
       width="80"
       height="81.428574"
       x="741.42859"
       y="150.93121"
       ry="21.213202" />
    <rect
       style="fill:#a8c5d9;fill-opacity:1;stroke:#000000;stroke-opacity:1"
       id="rect8384"
       width="80"
       height="81.428574"
       x="-60.000019"
       y="62.362194"
       ry="21.213202" />
    <text
       sodipodi:linespacing="125%"
       id="text8386"
       y="106.31648"
       x="-42.145641"
       style="font-size:60px;font-style:normal;font-variant:normal;font-weight:normal;font-stretch:normal;line-height:125%;letter-spacing:0px;word-spacing:0px;writing-mode:lr-tb;fill:#000000;fill-opacity:1;stroke:none;font-family:Ubuntu;-inkscape-font-specification:Ubuntu"
       xml:space="preserve"><tspan
         y="106.31648"
         x="-42.145641"
         id="tspan8388"
         sodipodi:role="line">...</tspan></text>
  </g>
</svg>
