<?xml version="1.0" encoding="UTF-8" standalone="no"?>
<!-- Created with Inkscape (http://www.inkscape.org/) -->
<svg xmlns:dc="http://purl.org/dc/elements/1.1/" xmlns:cc="http://web.resource.org/cc/" xmlns:rdf="http://www.w3.org/1999/02/22-rdf-syntax-ns#" xmlns:svg="http://www.w3.org/2000/svg" xmlns="http://www.w3.org/2000/svg" xmlns:sodipodi="http://sodipodi.sourceforge.net/DTD/sodipodi-0.dtd" xmlns:inkscape="http://www.inkscape.org/namespaces/inkscape" width="698.52008" height="800.90808" id="svg2830" sodipodi:version="0.32" inkscape:version="0.45.1" sodipodi:docbase="/home/brunurb/Desktop/LegoBlocks brunurb" sodipodi:docname="LegoBlocks brunurb.svg" inkscape:output_extension="org.inkscape.output.svg.inkscape" inkscape:export-filename="/home/brunurb/Desktop/LegoBlocks brunurb/LegoBlocks brunurb.png" inkscape:export-xdpi="72" inkscape:export-ydpi="72" version="1.0">
  <defs id="defs2832"/>
  <sodipodi:namedview id="base" pagecolor="#ffffff" bordercolor="#666666" borderopacity="1.0" gridtolerance="10000" guidetolerance="10" objecttolerance="10" inkscape:pageopacity="0.0" inkscape:pageshadow="2" inkscape:zoom="0.35" inkscape:cx="375" inkscape:cy="241.29363" inkscape:document-units="px" inkscape:current-layer="layer1" inkscape:window-width="1280" inkscape:window-height="951" inkscape:window-x="0" inkscape:window-y="24"/>
  <metadata id="metadata2835">
    <rdf:RDF>
      <cc:Work rdf:about="">
        <dc:format>image/svg+xml</dc:format>
        <dc:type rdf:resource="http://purl.org/dc/dcmitype/StillImage"/>
        <dc:title>LegoBlocks brunurb</dc:title>
        <dc:date>2007-11-14</dc:date>
        <dc:creator>
          <cc:Agent>
            <dc:title>brunurb</dc:title>
          </cc:Agent>
        </dc:creator>
        <dc:rights>
          <cc:Agent>
            <dc:title>This work is hereby released into the Public Domain. To view a copy of the public domain dedication, visit http://creativecommons.org/licenses/publicdomain/ or send a letter to Creative Commons, 171 Second Street, Suite 300, San Francisco, California, 94105, USA.</dc:title>
          </cc:Agent>
        </dc:rights>
        <dc:publisher>
          <cc:Agent>
            <dc:title>openclipart.org</dc:title>
          </cc:Agent>
        </dc:publisher>
        <dc:identifier>openclipart.org</dc:identifier>
        <dc:subject>
          <rdf:Bag>
            <rdf:li>lego</rdf:li>
            <rdf:li>block</rdf:li>
            <rdf:li>brick</rdf:li>
            <rdf:li>plastic</rdf:li>
            <rdf:li>play</rdf:li>
            <rdf:li>game</rdf:li>
            <rdf:li>toy</rdf:li>
            <rdf:li>kid</rdf:li>
            <rdf:li>children</rdf:li>
            <rdf:li>puzzle</rdf:li>
            <rdf:li>build</rdf:li>
          </rdf:Bag>
        </dc:subject>
        <dc:description>Lego type construction bricks</dc:description>
        <cc:license rdf:resource="http://web.resource.org/cc/PublicDomain"/>
      </cc:Work>
      <cc:License rdf:about="http://web.resource.org/cc/PublicDomain">
        <cc:permits rdf:resource="http://web.resource.org/cc/Reproduction"/>
        <cc:permits rdf:resource="http://web.resource.org/cc/Distribution"/>
        <cc:permits rdf:resource="http://web.resource.org/cc/DerivativeWorks"/>
      </cc:License>
    </rdf:RDF>
  </metadata>
  <g inkscape:label="Layer 1" inkscape:groupmode="layer" id="layer1" transform="translate(-27.6818, -60.069)">
    <g id="g3245" transform="translate(-17.1429, -97.1429)">
      <g transform="matrix(5.72445, 0, 0, 5.72445, -1262.68, -2786.68)" id="g3164" style="fill: rgb(0, 46, 196); fill-opacity: 1;">
        <path style="fill: rgb(0, 46, 196); fill-opacity: 1;" id="path3166" d="M 269.56,621.363 L 269.56,643.864 L 294.741,654.044 L 294.741,631.542 L 269.56,621.363 z "/>
      </g>
      <g transform="matrix(5.72445, 0, 0, 5.72445, -1262.68, -2786.68)" id="g3168" style="fill: rgb(45, 166, 255);">
        <path id="path3170" d="M 325.546,644.241 L 325.546,622.481 L 294.607,631.676 L 294.607,654.177 L 325.546,644.241 z "/>
      </g>
      <g transform="matrix(5.72445, 0, 0, 5.72445, -1262.68, -2786.68)" id="g3172" style="fill: rgb(45, 166, 255);">
        <path id="path3174" d="M 269.56,621.631 L 300.752,612.439 L 325.546,622.481 L 294.741,631.943 L 269.56,621.631 z "/>
      </g>
      <g transform="matrix(5.72445, 0, 0, 5.72445, -1262.68, -2786.68)" id="g3176" style="fill: rgb(0, 46, 196);">
        <path id="path3178" d="M 289.92,622.969 L 289.92,627.523 C 292.33,629.666 300.633,629.533 302.643,627.255 L 302.643,622.567 L 289.92,622.969 z "/>
      </g>
      <g transform="matrix(5.72445, 0, 0, 5.72445, -1262.68, -2786.68)" id="g3180" style="fill: rgb(45, 166, 255);">
        <path id="path3182" d="M 289.92,622.635 C 289.92,621.785 292.768,621.095 296.281,621.095 C 299.795,621.095 302.643,621.785 302.643,622.635 C 302.643,623.486 299.795,624.175 296.281,624.175 C 292.768,624.175 289.92,623.486 289.92,622.635 z "/>
      </g>
      <g transform="matrix(5.72445, 0, 0, 5.72445, -1262.68, -2786.68)" id="g3188" style="fill: rgb(0, 46, 196);">
        <path id="path3190" d="M 305.79,618.348 L 305.79,622.902 C 308.201,625.046 316.504,624.912 318.513,622.635 L 318.513,617.947 L 305.79,618.348 z "/>
      </g>
      <g transform="matrix(5.72445, 0, 0, 5.72445, -1262.68, -2786.68)" id="g3192" style="fill: rgb(45, 166, 255);">
        <path id="path3194" d="M 305.79,618.015 C 305.79,617.164 308.638,616.475 312.152,616.475 C 315.665,616.475 318.513,617.164 318.513,618.015 C 318.513,618.865 315.665,619.555 312.152,619.555 C 308.638,619.555 305.79,618.865 305.79,618.015 z "/>
      </g>
      <g transform="matrix(5.72445, 0, 0, 5.72445, -1262.68, -2786.68)" id="g3200" style="fill: rgb(0, 46, 196);">
        <path id="path3202" d="M 292.601,612.793 L 292.601,617.347 C 295.012,619.49 303.315,619.356 305.324,617.079 L 305.324,612.391 L 292.601,612.793 z "/>
      </g>
      <g transform="matrix(5.72445, 0, 0, 5.72445, -1262.68, -2786.68)" id="g3204" style="fill: rgb(45, 166, 255);">
        <path id="path3206" d="M 292.601,612.459 C 292.601,611.609 295.449,610.919 298.963,610.919 C 302.476,610.919 305.324,611.609 305.324,612.459 C 305.324,613.31 302.476,613.999 298.963,613.999 C 295.449,613.999 292.601,613.31 292.601,612.459 z "/>
      </g>
      <g transform="matrix(5.72445, 0, 0, 5.72445, -1262.68, -2786.68)" id="g3212" style="fill: rgb(0, 46, 196);">
        <path id="path3214" d="M 276.999,617.281 L 276.999,621.835 C 279.41,623.978 287.713,623.844 289.722,621.567 L 289.722,616.879 L 276.999,617.281 z "/>
      </g>
      <g transform="matrix(5.72445, 0, 0, 5.72445, -1262.68, -2786.68)" id="g3216" style="fill: rgb(45, 166, 255);">
        <path id="path3218" d="M 276.999,616.947 C 276.999,616.096 279.847,615.407 283.361,615.407 C 286.874,615.407 289.722,616.096 289.722,616.947 C 289.722,617.798 286.874,618.487 283.361,618.487 C 279.847,618.487 276.999,617.798 276.999,616.947 z "/>
      </g>
    </g>
    <g style="fill: rgb(245, 250, 64);" id="g2860" transform="matrix(5.72445, 0, 0, 5.72445, -582.682, -2300.97)">
      <path id="path2862" d=""/>
    </g>
    <g style="fill: rgb(245, 250, 64);" id="g2872" transform="matrix(5.72445, 0, 0, 5.72445, -582.682, -2300.97)">
      <path id="path2874" d=""/>
    </g>
    <g style="fill: rgb(245, 250, 64);" id="g2884" transform="matrix(5.72445, 0, 0, 5.72445, -582.682, -2300.97)">
      <path id="path2886" d=""/>
    </g>
    <g style="fill: rgb(245, 250, 64);" id="g2896" transform="matrix(5.72445, 0, 0, 5.72445, -582.682, -2300.97)">
      <path id="path2898" d=""/>
    </g>
    <g style="fill: rgb(245, 250, 64);" id="g2908" transform="matrix(5.72445, 0, 0, 5.72445, -582.682, -2300.97)">
      <path id="path2910" d=""/>
    </g>
    <g style="fill: rgb(245, 250, 64);" id="g2920" transform="matrix(5.72445, 0, 0, 5.72445, -582.682, -2300.97)">
      <path id="path2922" d=""/>
    </g>
    <g style="fill: rgb(245, 250, 64);" id="g2932" transform="matrix(5.72445, 0, 0, 5.72445, -582.682, -2300.97)">
      <path id="path2934" d=""/>
    </g>
    <g style="fill: rgb(245, 250, 64);" id="g2944" transform="matrix(5.72445, 0, 0, 5.72445, -582.682, -2300.97)">
      <path id="path2946" d=""/>
    </g>
    <g style="fill: rgb(255, 33, 44);" id="g2968" transform="matrix(5.72445, 0, 0, 5.72445, -582.682, -2300.97)">
      <path id="path2970" d=""/>
    </g>
    <g style="fill: rgb(255, 33, 44);" id="g2980" transform="matrix(5.72445, 0, 0, 5.72445, -582.682, -2300.97)">
      <path id="path2982" d=""/>
    </g>
    <g style="fill: rgb(255, 33, 44);" id="g2992" transform="matrix(5.72445, 0, 0, 5.72445, -582.682, -2300.97)">
      <path id="path2994" d=""/>
    </g>
    <g style="fill: rgb(255, 33, 44);" id="g3004" transform="matrix(5.72445, 0, 0, 5.72445, -582.682, -2300.97)">
      <path id="path3006" d=""/>
    </g>
    <g style="fill: rgb(255, 33, 44);" id="g3016" transform="matrix(5.72445, 0, 0, 5.72445, -582.682, -2300.97)">
      <path id="path3018" d=""/>
    </g>
    <g style="fill: rgb(255, 33, 44);" id="g3028" transform="matrix(5.72445, 0, 0, 5.72445, -582.682, -2300.97)">
      <path id="path3030" d=""/>
    </g>
    <g style="fill: rgb(255, 33, 44);" id="g3040" transform="matrix(5.72445, 0, 0, 5.72445, -582.682, -2300.97)">
      <path id="path3042" d=""/>
    </g>
    <g style="fill: rgb(255, 33, 44);" id="g3052" transform="matrix(5.72445, 0, 0, 5.72445, -582.682, -2300.97)">
      <path id="path3054" d=""/>
    </g>
    <g style="fill: rgb(45, 166, 255);" id="g3076" transform="matrix(5.72445, 0, 0, 5.72445, -582.682, -2300.97)">
      <path id="path3078" d=""/>
    </g>
    <g style="fill: rgb(45, 166, 255);" id="g3088" transform="matrix(5.72445, 0, 0, 5.72445, -582.682, -2300.97)">
      <path id="path3090" d=""/>
    </g>
    <g style="fill: rgb(45, 166, 255);" id="g3100" transform="matrix(5.72445, 0, 0, 5.72445, -582.682, -2300.97)">
      <path id="path3102" d=""/>
    </g>
    <g style="fill: rgb(45, 166, 255);" id="g3112" transform="matrix(5.72445, 0, 0, 5.72445, -582.682, -2300.97)">
      <path id="path3114" d=""/>
    </g>
    <g style="fill: rgb(45, 166, 255);" id="g3124" transform="matrix(5.72445, 0, 0, 5.72445, -582.682, -2300.97)">
      <path id="path3126" d=""/>
    </g>
    <g style="fill: rgb(45, 166, 255);" id="g3136" transform="matrix(5.72445, 0, 0, 5.72445, -582.682, -2300.97)">
      <path id="path3138" d=""/>
    </g>
    <g style="fill: rgb(45, 166, 255);" id="g3148" transform="matrix(5.72445, 0, 0, 5.72445, -582.682, -2300.97)">
      <path id="path3150" d=""/>
    </g>
    <g id="g3269">
      <g transform="matrix(5.72445, 0, 0, 5.72445, -582.682, -2300.97)" id="g2840" style="fill: rgb(252, 211, 39);">
        <path id="path2842" d="M 122.048,480.785 L 122.048,503.287 L 147.229,513.466 L 147.229,490.964 L 122.048,480.785 z "/>
      </g>
      <g transform="matrix(5.72445, 0, 0, 5.72445, -582.682, -2300.97)" id="g2844" style="fill: rgb(245, 250, 64);">
        <path id="path2846" d="M 209.509,493.81 L 209.509,472.881 L 147.095,491.098 L 147.095,513.6 L 209.509,493.81 z "/>
      </g>
      <g transform="matrix(5.72445, 0, 0, 5.72445, -582.682, -2300.97)" id="g2848" style="fill: rgb(245, 250, 64);">
        <path id="path2850" d="M 122.048,481.053 L 184.06,462.166 L 209.375,472.881 L 147.229,491.366 L 122.048,481.053 z "/>
      </g>
      <g transform="matrix(5.72445, 0, 0, 5.72445, -582.682, -2300.97)" id="g2852" style="fill: rgb(233, 176, 24);">
        <path id="path2854" d="M 142.407,482.391 L 142.407,486.945 C 144.818,489.089 153.121,488.955 155.131,486.678 L 155.131,481.989 L 142.407,482.391 z "/>
      </g>
      <g transform="matrix(5.72445, 0, 0, 5.72445, -582.682, -2300.97)" id="g2856" style="fill: rgb(245, 250, 64);">
        <path id="path2858" d="M 142.407,482.057 C 142.407,481.207 145.255,480.517 148.769,480.517 C 152.282,480.517 155.131,481.207 155.131,482.057 C 155.131,482.908 152.282,483.597 148.769,483.597 C 145.255,483.597 142.407,482.908 142.407,482.057 z "/>
      </g>
      <g transform="matrix(5.72445, 0, 0, 5.72445, -582.682, -2300.97)" id="g2864" style="fill: rgb(233, 176, 24);">
        <path id="path2866" d="M 158.278,477.77 L 158.278,482.325 C 160.689,484.468 168.992,484.334 171.001,482.057 L 171.001,477.369 L 158.278,477.77 z "/>
      </g>
      <g transform="matrix(5.72445, 0, 0, 5.72445, -582.682, -2300.97)" id="g2868" style="fill: rgb(245, 250, 64);">
        <path id="path2870" d="M 158.278,477.437 C 158.278,476.586 161.126,475.897 164.639,475.897 C 168.153,475.897 171.001,476.586 171.001,477.437 C 171.001,478.287 168.153,478.977 164.639,478.977 C 161.126,478.977 158.278,478.287 158.278,477.437 z "/>
      </g>
      <g transform="matrix(5.72445, 0, 0, 5.72445, -582.682, -2300.97)" id="g2876" style="fill: rgb(233, 176, 24);">
        <path id="path2878" d="M 173.747,473.15 L 173.747,477.704 C 176.158,479.847 184.461,479.713 186.47,477.436 L 186.47,472.748 L 173.747,473.15 z "/>
      </g>
      <g transform="matrix(5.72445, 0, 0, 5.72445, -582.682, -2300.97)" id="g2880" style="fill: rgb(245, 250, 64);">
        <path id="path2882" d="M 173.747,472.816 C 173.747,471.965 176.595,471.276 180.109,471.276 C 183.622,471.276 186.47,471.965 186.47,472.816 C 186.47,473.667 183.622,474.356 180.109,474.356 C 176.595,474.356 173.747,473.667 173.747,472.816 z "/>
      </g>
      <g transform="matrix(5.72445, 0, 0, 5.72445, -582.682, -2300.97)" id="g2888" style="fill: rgb(233, 176, 24);">
        <path id="path2890" d="M 188.681,468.663 L 188.681,473.217 C 191.092,475.36 199.395,475.226 201.404,472.949 L 201.404,468.261 L 188.681,468.663 z "/>
      </g>
      <g transform="matrix(5.72445, 0, 0, 5.72445, -582.682, -2300.97)" id="g2892" style="fill: rgb(245, 250, 64);">
        <path id="path2894" d="M 188.681,468.329 C 188.681,467.479 191.529,466.789 195.042,466.789 C 198.556,466.789 201.404,467.479 201.404,468.329 C 201.404,469.18 198.556,469.869 195.042,469.869 C 191.529,469.869 188.681,469.18 188.681,468.329 z "/>
      </g>
      <g transform="matrix(5.72445, 0, 0, 5.72445, -582.682, -2300.97)" id="g2900" style="fill: rgb(233, 176, 24);">
        <path id="path2902" d="M 176.293,463.239 L 176.293,467.793 C 178.703,469.937 187.006,469.803 189.016,467.526 L 189.016,462.838 L 176.293,463.239 z "/>
      </g>
      <g transform="matrix(5.72445, 0, 0, 5.72445, -582.682, -2300.97)" id="g2904" style="fill: rgb(245, 250, 64);">
        <path id="path2906" d="M 176.293,462.906 C 176.293,462.055 179.141,461.366 182.654,461.366 C 186.168,461.366 189.016,462.055 189.016,462.906 C 189.016,463.756 186.168,464.446 182.654,464.446 C 179.141,464.446 176.293,463.756 176.293,462.906 z "/>
      </g>
      <g transform="matrix(5.72445, 0, 0, 5.72445, -582.682, -2300.97)" id="g2912" style="fill: rgb(233, 176, 24);">
        <path id="path2914" d="M 160.691,467.727 L 160.691,472.281 C 163.101,474.425 171.405,474.291 173.414,472.014 L 173.414,467.325 L 160.691,467.727 z "/>
      </g>
      <g transform="matrix(5.72445, 0, 0, 5.72445, -582.682, -2300.97)" id="g2916" style="fill: rgb(245, 250, 64);">
        <path id="path2918" d="M 160.691,467.393 C 160.691,466.543 163.539,465.853 167.052,465.853 C 170.566,465.853 173.414,466.543 173.414,467.393 C 173.414,468.244 170.566,468.933 167.052,468.933 C 163.539,468.933 160.691,468.244 160.691,467.393 z "/>
      </g>
      <g transform="matrix(5.72445, 0, 0, 5.72445, -582.682, -2300.97)" id="g2924" style="fill: rgb(233, 176, 24);">
        <path id="path2926" d="M 145.089,472.215 L 145.089,476.769 C 147.5,478.912 155.803,478.779 157.812,476.501 L 157.812,471.813 L 145.089,472.215 z "/>
      </g>
      <g transform="matrix(5.72445, 0, 0, 5.72445, -582.682, -2300.97)" id="g2928" style="fill: rgb(245, 250, 64);">
        <path id="path2930" d="M 145.089,471.881 C 145.089,471.031 147.937,470.341 151.45,470.341 C 154.964,470.341 157.812,471.031 157.812,471.881 C 157.812,472.732 154.964,473.421 151.45,473.421 C 147.937,473.421 145.089,472.732 145.089,471.881 z "/>
      </g>
      <g transform="matrix(5.72445, 0, 0, 5.72445, -582.682, -2300.97)" id="g2936" style="fill: rgb(233, 176, 24);">
        <path id="path2938" d="M 129.487,476.703 L 129.487,481.257 C 131.898,483.4 140.201,483.266 142.21,480.989 L 142.21,476.301 L 129.487,476.703 z "/>
      </g>
      <g transform="matrix(5.72445, 0, 0, 5.72445, -582.682, -2300.97)" id="g2940" style="fill: rgb(245, 250, 64);">
        <path id="path2942" d="M 129.487,476.369 C 129.487,475.519 132.335,474.829 135.848,474.829 C 139.362,474.829 142.21,475.519 142.21,476.369 C 142.21,477.22 139.362,477.909 135.848,477.909 C 132.335,477.909 129.487,477.22 129.487,476.369 z "/>
      </g>
      <g transform="matrix(5.72445, 0, 0, 5.72445, -582.682, -2300.97)" id="g2948" style="fill: rgb(192, 1, 4); fill-opacity: 1;">
        <path style="fill: rgb(192, 1, 4); fill-opacity: 1;" id="path2950" d="M 141.187,453.286 L 141.187,475.787 L 166.368,485.967 L 166.368,463.465 L 141.187,453.286 z "/>
      </g>
      <g transform="matrix(5.72445, 0, 0, 5.72445, -582.682, -2300.97)" id="g2952" style="fill: rgb(255, 33, 44);">
        <path id="path2954" d="M 228.648,466.311 L 228.648,445.382 L 166.234,463.599 L 166.234,486.1 L 228.648,466.311 z "/>
      </g>
      <g transform="matrix(5.72445, 0, 0, 5.72445, -582.682, -2300.97)" id="g2956" style="fill: rgb(255, 33, 44);">
        <path id="path2958" d="M 141.187,453.553 L 203.2,434.667 L 228.514,445.382 L 166.368,463.866 L 141.187,453.553 z "/>
      </g>
      <g transform="matrix(5.72445, 0, 0, 5.72445, -582.682, -2300.97)" id="g2960" style="fill: rgb(192, 1, 4);">
        <path id="path2962" d="M 161.547,454.892 L 161.547,459.446 C 163.957,461.589 172.26,461.456 174.27,459.178 L 174.27,454.49 L 161.547,454.892 z "/>
      </g>
      <g transform="matrix(5.72445, 0, 0, 5.72445, -582.682, -2300.97)" id="g2964" style="fill: rgb(255, 33, 44);">
        <path id="path2966" d="M 161.547,454.558 C 161.547,453.708 164.395,453.018 167.908,453.018 C 171.422,453.018 174.27,453.708 174.27,454.558 C 174.27,455.409 171.422,456.098 167.908,456.098 C 164.395,456.098 161.547,455.409 161.547,454.558 z "/>
      </g>
      <g transform="matrix(5.72445, 0, 0, 5.72445, -582.682, -2300.97)" id="g2972" style="fill: rgb(192, 1, 4);">
        <path id="path2974" d="M 177.417,450.271 L 177.417,454.825 C 179.828,456.969 188.131,456.835 190.14,454.558 L 190.14,449.87 L 177.417,450.271 z "/>
      </g>
      <g transform="matrix(5.72445, 0, 0, 5.72445, -582.682, -2300.97)" id="g2976" style="fill: rgb(255, 33, 44);">
        <path id="path2978" d="M 177.417,449.938 C 177.417,449.087 180.265,448.398 183.779,448.398 C 187.292,448.398 190.14,449.087 190.14,449.938 C 190.14,450.788 187.292,451.478 183.779,451.478 C 180.265,451.478 177.417,450.788 177.417,449.938 z "/>
      </g>
      <g transform="matrix(5.72445, 0, 0, 5.72445, -582.682, -2300.97)" id="g2984" style="fill: rgb(192, 1, 4);">
        <path id="path2986" d="M 192.886,445.65 L 192.886,450.205 C 195.297,452.348 203.6,452.214 205.609,449.937 L 205.609,445.249 L 192.886,445.65 z "/>
      </g>
      <g transform="matrix(5.72445, 0, 0, 5.72445, -582.682, -2300.97)" id="g2988" style="fill: rgb(255, 33, 44);">
        <path id="path2990" d="M 192.886,445.317 C 192.886,444.466 195.734,443.777 199.248,443.777 C 202.761,443.777 205.609,444.466 205.609,445.317 C 205.609,446.167 202.761,446.857 199.248,446.857 C 195.734,446.857 192.886,446.167 192.886,445.317 z "/>
      </g>
      <g transform="matrix(5.72445, 0, 0, 5.72445, -582.682, -2300.97)" id="g2996" style="fill: rgb(192, 1, 4);">
        <path id="path2998" d="M 207.82,441.164 L 207.82,445.718 C 210.231,447.861 218.534,447.727 220.543,445.45 L 220.543,440.762 L 207.82,441.164 z "/>
      </g>
      <g transform="matrix(5.72445, 0, 0, 5.72445, -582.682, -2300.97)" id="g3000" style="fill: rgb(255, 33, 44);">
        <path id="path3002" d="M 207.82,440.83 C 207.82,439.98 210.668,439.29 214.182,439.29 C 217.695,439.29 220.543,439.98 220.543,440.83 C 220.543,441.681 217.695,442.37 214.182,442.37 C 210.668,442.37 207.82,441.681 207.82,440.83 z "/>
      </g>
      <g transform="matrix(5.72445, 0, 0, 5.72445, -582.682, -2300.97)" id="g3008" style="fill: rgb(192, 1, 4);">
        <path id="path3010" d="M 195.432,435.74 L 195.432,440.294 C 197.843,442.438 206.146,442.304 208.155,440.027 L 208.155,435.338 L 195.432,435.74 z "/>
      </g>
      <g transform="matrix(5.72445, 0, 0, 5.72445, -582.682, -2300.97)" id="g3012" style="fill: rgb(255, 33, 44);">
        <path id="path3014" d="M 195.432,435.406 C 195.432,434.556 198.28,433.866 201.793,433.866 C 205.307,433.866 208.155,434.556 208.155,435.406 C 208.155,436.257 205.307,436.946 201.793,436.946 C 198.28,436.946 195.432,436.257 195.432,435.406 z "/>
      </g>
      <g transform="matrix(5.72445, 0, 0, 5.72445, -582.682, -2300.97)" id="g3020" style="fill: rgb(192, 1, 4);">
        <path id="path3022" d="M 179.83,440.228 L 179.83,444.782 C 182.241,446.925 190.544,446.792 192.553,444.514 L 192.553,439.826 L 179.83,440.228 z "/>
      </g>
      <g transform="matrix(5.72445, 0, 0, 5.72445, -582.682, -2300.97)" id="g3024" style="fill: rgb(255, 33, 44);">
        <path id="path3026" d="M 179.83,439.894 C 179.83,439.044 182.678,438.354 186.191,438.354 C 189.705,438.354 192.553,439.044 192.553,439.894 C 192.553,440.745 189.705,441.434 186.191,441.434 C 182.678,441.434 179.83,440.745 179.83,439.894 z "/>
      </g>
      <g transform="matrix(5.72445, 0, 0, 5.72445, -582.682, -2300.97)" id="g3032" style="fill: rgb(192, 1, 4);">
        <path id="path3034" d="M 164.228,444.716 L 164.228,449.27 C 166.639,451.413 174.942,451.279 176.951,449.002 L 176.951,444.314 L 164.228,444.716 z "/>
      </g>
      <g transform="matrix(5.72445, 0, 0, 5.72445, -582.682, -2300.97)" id="g3036" style="fill: rgb(255, 33, 44);">
        <path id="path3038" d="M 164.228,444.382 C 164.228,443.532 167.076,442.842 170.59,442.842 C 174.103,442.842 176.951,443.532 176.951,444.382 C 176.951,445.233 174.103,445.922 170.59,445.922 C 167.076,445.922 164.228,445.233 164.228,444.382 z "/>
      </g>
      <g transform="matrix(5.72445, 0, 0, 5.72445, -582.682, -2300.97)" id="g3044" style="fill: rgb(192, 1, 4);">
        <path id="path3046" d="M 148.626,449.204 L 148.626,453.758 C 151.037,455.901 159.34,455.767 161.349,453.49 L 161.349,448.802 L 148.626,449.204 z "/>
      </g>
      <g transform="matrix(5.72445, 0, 0, 5.72445, -582.682, -2300.97)" id="g3048" style="fill: rgb(255, 33, 44);">
        <path id="path3050" d="M 148.626,448.87 C 148.626,448.019 151.474,447.33 154.988,447.33 C 158.501,447.33 161.349,448.019 161.349,448.87 C 161.349,449.721 158.501,450.41 154.988,450.41 C 151.474,450.41 148.626,449.721 148.626,448.87 z "/>
      </g>
      <g transform="matrix(5.72445, 0, 0, 5.72445, -582.682, -2300.97)" id="g3056" style="fill: rgb(0, 46, 196); fill-opacity: 1;">
        <path style="fill: rgb(0, 46, 196); fill-opacity: 1;" id="path3058" d="M 106.624,431.868 L 106.624,454.369 L 131.805,464.548 L 131.805,442.047 L 106.624,431.868 z "/>
      </g>
      <g transform="matrix(5.72445, 0, 0, 5.72445, -582.682, -2300.97)" id="g3060" style="fill: rgb(45, 166, 255);">
        <path id="path3062" d="M 194.085,444.893 L 194.085,423.964 L 131.671,442.181 L 131.671,464.682 L 194.085,444.893 z "/>
      </g>
      <g transform="matrix(5.72445, 0, 0, 5.72445, -582.682, -2300.97)" id="g3064" style="fill: rgb(45, 166, 255);">
        <path id="path3066" d="M 106.624,432.135 L 168.636,413.249 L 193.951,423.964 L 131.805,442.448 L 106.624,432.135 z "/>
      </g>
      <g transform="matrix(5.72445, 0, 0, 5.72445, -582.682, -2300.97)" id="g3068" style="fill: rgb(0, 46, 196);">
        <path id="path3070" d="M 126.983,433.474 L 126.983,438.028 C 129.394,440.171 137.697,440.037 139.706,437.76 L 139.706,433.072 L 126.983,433.474 z "/>
      </g>
      <g transform="matrix(5.72445, 0, 0, 5.72445, -582.682, -2300.97)" id="g3072" style="fill: rgb(45, 166, 255);">
        <path id="path3074" d="M 126.983,433.14 C 126.983,432.29 129.831,431.6 133.345,431.6 C 136.858,431.6 139.706,432.29 139.706,433.14 C 139.706,433.991 136.858,434.68 133.345,434.68 C 129.831,434.68 126.983,433.991 126.983,433.14 z "/>
      </g>
      <g transform="matrix(5.72445, 0, 0, 5.72445, -582.682, -2300.97)" id="g3080" style="fill: rgb(0, 46, 196);">
        <path id="path3082" d="M 142.854,428.853 L 142.854,433.407 C 145.264,435.551 153.567,435.417 155.577,433.14 L 155.577,428.452 L 142.854,428.853 z "/>
      </g>
      <g transform="matrix(5.72445, 0, 0, 5.72445, -582.682, -2300.97)" id="g3084" style="fill: rgb(45, 166, 255);">
        <path id="path3086" d="M 142.854,428.519 C 142.854,427.669 145.702,426.979 149.215,426.979 C 152.729,426.979 155.577,427.669 155.577,428.519 C 155.577,429.37 152.729,430.06 149.215,430.06 C 145.702,430.06 142.854,429.37 142.854,428.519 z "/>
      </g>
      <g transform="matrix(5.72445, 0, 0, 5.72445, -582.682, -2300.97)" id="g3092" style="fill: rgb(0, 46, 196);">
        <path id="path3094" d="M 158.323,424.232 L 158.323,428.787 C 160.734,430.93 169.037,430.796 171.046,428.519 L 171.046,423.831 L 158.323,424.232 z "/>
      </g>
      <g transform="matrix(5.72445, 0, 0, 5.72445, -582.682, -2300.97)" id="g3096" style="fill: rgb(45, 166, 255);">
        <path id="path3098" d="M 158.323,423.899 C 158.323,423.048 161.171,422.359 164.684,422.359 C 168.198,422.359 171.046,423.048 171.046,423.899 C 171.046,424.749 168.198,425.439 164.684,425.439 C 161.171,425.439 158.323,424.749 158.323,423.899 z "/>
      </g>
      <g transform="matrix(5.72445, 0, 0, 5.72445, -582.682, -2300.97)" id="g3104" style="fill: rgb(0, 46, 196);">
        <path id="path3106" d="M 173.257,419.746 L 173.257,424.3 C 175.667,426.443 183.97,426.309 185.98,424.032 L 185.98,419.344 L 173.257,419.746 z "/>
      </g>
      <g transform="matrix(5.72445, 0, 0, 5.72445, -582.682, -2300.97)" id="g3108" style="fill: rgb(45, 166, 255);">
        <path id="path3110" d="M 173.257,419.412 C 173.257,418.561 176.105,417.872 179.618,417.872 C 183.132,417.872 185.98,418.561 185.98,419.412 C 185.98,420.263 183.132,420.952 179.618,420.952 C 176.105,420.952 173.257,420.263 173.257,419.412 z "/>
      </g>
      <g transform="matrix(5.72445, 0, 0, 5.72445, -582.682, -2300.97)" id="g3116" style="fill: rgb(0, 46, 196);">
        <path id="path3118" d="M 160.868,414.322 L 160.868,418.876 C 163.279,421.019 171.582,420.886 173.592,418.608 L 173.592,413.92 L 160.868,414.322 z "/>
      </g>
      <g transform="matrix(5.72445, 0, 0, 5.72445, -582.682, -2300.97)" id="g3120" style="fill: rgb(45, 166, 255);">
        <path id="path3122" d="M 160.868,413.988 C 160.868,413.138 163.717,412.448 167.23,412.448 C 170.744,412.448 173.592,413.138 173.592,413.988 C 173.592,414.839 170.744,415.528 167.23,415.528 C 163.717,415.528 160.868,414.839 160.868,413.988 z "/>
      </g>
      <g transform="matrix(5.72445, 0, 0, 5.72445, -582.682, -2300.97)" id="g3128" style="fill: rgb(0, 46, 196);">
        <path id="path3130" d="M 145.267,418.81 L 145.267,423.364 C 147.677,425.507 155.98,425.373 157.99,423.096 L 157.99,418.408 L 145.267,418.81 z "/>
      </g>
      <g transform="matrix(5.72445, 0, 0, 5.72445, -582.682, -2300.97)" id="g3132" style="fill: rgb(45, 166, 255);">
        <path id="path3134" d="M 145.267,418.476 C 145.267,417.626 148.115,416.936 151.628,416.936 C 155.142,416.936 157.99,417.626 157.99,418.476 C 157.99,419.327 155.142,420.016 151.628,420.016 C 148.115,420.016 145.267,419.327 145.267,418.476 z "/>
      </g>
      <g transform="matrix(5.72445, 0, 0, 5.72445, -582.682, -2300.97)" id="g3140" style="fill: rgb(0, 46, 196);">
        <path id="path3142" d="M 129.665,423.298 L 129.665,427.852 C 132.075,429.995 140.378,429.861 142.388,427.584 L 142.388,422.896 L 129.665,423.298 z "/>
      </g>
      <g transform="matrix(5.72445, 0, 0, 5.72445, -582.682, -2300.97)" id="g3144" style="fill: rgb(45, 166, 255);">
        <path id="path3146" d="M 129.665,422.964 C 129.665,422.113 132.513,421.424 136.026,421.424 C 139.54,421.424 142.388,422.113 142.388,422.964 C 142.388,423.815 139.54,424.504 136.026,424.504 C 132.513,424.504 129.665,423.815 129.665,422.964 z "/>
      </g>
      <g transform="matrix(5.72445, 0, 0, 5.72445, -582.682, -2300.97)" id="g3152" style="fill: rgb(0, 46, 196);">
        <path id="path3154" d="M 114.063,427.785 L 114.063,432.34 C 116.474,434.483 124.776,434.349 126.786,432.072 L 126.786,427.384 L 114.063,427.785 z "/>
      </g>
      <g transform="matrix(5.72445, 0, 0, 5.72445, -582.682, -2300.97)" id="g3156" style="fill: rgb(45, 166, 255);">
        <path id="path3158" d="M 114.063,427.452 C 114.063,426.601 116.911,425.912 120.424,425.912 C 123.938,425.912 126.786,426.601 126.786,427.452 C 126.786,428.302 123.938,428.992 120.424,428.992 C 116.911,428.992 114.063,428.302 114.063,427.452 z "/>
      </g>
    </g>
    <g style="fill: rgb(45, 166, 255);" id="g3160" transform="matrix(5.72445, 0, 0, 5.72445, -582.682, -2300.97)">
      <path id="path3162" d=""/>
    </g>
    <g style="fill: rgb(45, 166, 255);" id="g3184" transform="matrix(5.72445, 0, 0, 5.72445, -582.682, -2300.97)">
      <path id="path3186" d=""/>
    </g>
    <g style="fill: rgb(45, 166, 255);" id="g3196" transform="matrix(5.72445, 0, 0, 5.72445, -582.682, -2300.97)">
      <path id="path3198" d=""/>
    </g>
    <g style="fill: rgb(45, 166, 255);" id="g3208" transform="matrix(5.72445, 0, 0, 5.72445, -582.682, -2300.97)">
      <path id="path3210" d=""/>
    </g>
    <g style="fill: rgb(45, 166, 255);" id="g3220" transform="matrix(5.72445, 0, 0, 5.72445, -582.682, -2300.97)">
      <path id="path3222" d=""/>
    </g>
  </g>
</svg>