<?xml version="1.0" encoding="UTF-8" standalone="no"?>
<!-- Created with Inkscape (http://www.inkscape.org/) -->
<svg xmlns:dc="http://purl.org/dc/elements/1.1/" xmlns:cc="http://creativecommons.org/ns#" xmlns:rdf="http://www.w3.org/1999/02/22-rdf-syntax-ns#" xmlns:svg="http://www.w3.org/2000/svg" xmlns="http://www.w3.org/2000/svg" xmlns:xlink="http://www.w3.org/1999/xlink" xmlns:sodipodi="http://sodipodi.sourceforge.net/DTD/sodipodi-0.dtd" xmlns:inkscape="http://www.inkscape.org/namespaces/inkscape" id="svg2" sodipodi:version="0.32" inkscape:version="0.46" width="542.85583" height="536.37122" sodipodi:docname="maidis_lifesaver.svg" inkscape:output_extension="org.inkscape.output.svg.inkscape" version="1.0">
  <metadata id="metadata7">
    <rdf:RDF>
      <cc:Work rdf:about="">
        <dc:format>image/svg+xml</dc:format>
        <dc:type rdf:resource="http://purl.org/dc/dcmitype/StillImage"/>
      </cc:Work>
    </rdf:RDF>
  </metadata>
  <defs id="defs5">
    <linearGradient id="linearGradient3521">
      <stop id="stop3523" offset="0" style="stop-color: rgb(255, 255, 255); stop-opacity: 1;"/>
      <stop id="stop3525" offset="1" style="stop-color: rgb(227, 227, 227); stop-opacity: 1;"/>
    </linearGradient>
    <linearGradient id="linearGradient3466">
      <stop id="stop3468" offset="0" style="stop-color: rgb(0, 0, 0); stop-opacity: 1;"/>
      <stop id="stop3470" offset="1" style="stop-color: rgb(227, 227, 227); stop-opacity: 0;"/>
    </linearGradient>
    <linearGradient id="linearGradient3370">
      <stop style="stop-color: rgb(255, 255, 255); stop-opacity: 1;" offset="0" id="stop3372"/>
      <stop style="stop-color: rgb(227, 227, 227); stop-opacity: 1;" offset="1" id="stop3374"/>
    </linearGradient>
    <inkscape:perspective sodipodi:type="inkscape:persp3d" inkscape:vp_x="0 : 526.18109 : 1" inkscape:vp_y="6.1230318e-14 : 1000 : 0" inkscape:vp_z="744.09448 : 526.18109 : 1" inkscape:persp3d-origin="372.04724 : 350.78739 : 1" id="perspective9"/>
    <filter inkscape:collect="always" id="filter3241">
      <feGaussianBlur inkscape:collect="always" stdDeviation="12.361873" id="feGaussianBlur3243"/>
    </filter>
    <linearGradient inkscape:collect="always" xlink:href="#linearGradient3370" id="linearGradient3380" x1="249.04817" y1="382.96805" x2="229.92686" y2="401.26398" gradientUnits="userSpaceOnUse" gradientTransform="translate(-101.901, -257.241)"/>
    <linearGradient inkscape:collect="always" xlink:href="#linearGradient3370" id="linearGradient3388" x1="521.54919" y1="333.49506" x2="497.68823" y2="413.94836" gradientUnits="userSpaceOnUse" gradientTransform="translate(-101.901, -257.241)"/>
    <linearGradient inkscape:collect="always" xlink:href="#linearGradient3370" id="linearGradient3396" x1="509.60013" y1="638.98541" x2="498.11853" y2="671.93768" gradientUnits="userSpaceOnUse" gradientTransform="translate(-101.901, -257.241)"/>
    <linearGradient inkscape:collect="always" xlink:href="#linearGradient3370" id="linearGradient3404" x1="276.98618" y1="614.55609" x2="223.05998" y2="671.47845" gradientUnits="userSpaceOnUse" gradientTransform="translate(-101.901, -257.241)"/>
    <filter inkscape:collect="always" id="filter3456">
      <feGaussianBlur inkscape:collect="always" stdDeviation="11.857422" id="feGaussianBlur3458"/>
    </filter>
    <linearGradient inkscape:collect="always" xlink:href="#linearGradient3370" id="linearGradient3462" gradientUnits="userSpaceOnUse" x1="508.43787" y1="397.85333" x2="542.31287" y2="355.89984" gradientTransform="translate(-80.0956, -279.155)"/>
    <linearGradient inkscape:collect="always" xlink:href="#linearGradient3370" id="linearGradient3478" gradientUnits="userSpaceOnUse" gradientTransform="matrix(0, 1, -1, 0, 818.243, -81.0316)" x1="541.36432" y1="354.6203" x2="514.22815" y2="381.3598"/>
    <linearGradient inkscape:collect="always" xlink:href="#linearGradient3370" id="linearGradient3486" gradientUnits="userSpaceOnUse" gradientTransform="matrix(-1, 0, 0, -1, 620.152, 817.197)" x1="541.36432" y1="354.6203" x2="508.43787" y2="389.80618"/>
    <linearGradient inkscape:collect="always" xlink:href="#linearGradient3370" id="linearGradient3494" gradientUnits="userSpaceOnUse" gradientTransform="matrix(0, -1, 1, 0, -277.929, 618.83)" x1="511.88724" y1="389.80609" x2="533.22449" y2="372.85297"/>
    <radialGradient inkscape:collect="always" xlink:href="#linearGradient3521" id="radialGradient3527" cx="372.04724" cy="526.18109" fx="372.04724" fy="526.18109" r="254.8125" gradientUnits="userSpaceOnUse" gradientTransform="matrix(1.00147, 0.18817, -0.179804, 0.956949, -7.84017, -304.596)"/>
    <radialGradient inkscape:collect="always" xlink:href="#linearGradient3521" id="radialGradient3573" gradientUnits="userSpaceOnUse" gradientTransform="matrix(1.00147, 0.18817, -0.179804, 0.956949, -290.663, -593.756)" cx="372.04724" cy="526.18109" fx="372.04724" fy="526.18109" r="254.8125"/>
    <linearGradient inkscape:collect="always" xlink:href="#linearGradient3370" id="linearGradient3575" gradientUnits="userSpaceOnUse" gradientTransform="matrix(0, -1, 1, 0, -560.752, 329.67)" x1="511.88724" y1="389.80609" x2="533.22449" y2="372.85297"/>
    <linearGradient inkscape:collect="always" xlink:href="#linearGradient3370" id="linearGradient3577" gradientUnits="userSpaceOnUse" gradientTransform="matrix(0, 1, -1, 0, 535.42, -370.191)" x1="541.36432" y1="354.6203" x2="514.22815" y2="381.3598"/>
    <linearGradient inkscape:collect="always" xlink:href="#linearGradient3370" id="linearGradient3579" gradientUnits="userSpaceOnUse" gradientTransform="translate(-362.918, -568.314)" x1="508.43787" y1="397.85333" x2="542.31287" y2="355.89984"/>
    <linearGradient inkscape:collect="always" xlink:href="#linearGradient3370" id="linearGradient3581" gradientUnits="userSpaceOnUse" gradientTransform="matrix(-1, 0, 0, -1, 337.329, 528.037)" x1="541.36432" y1="354.6203" x2="508.43787" y2="389.80618"/>
    <filter inkscape:collect="always" id="filter3632">
      <feGaussianBlur inkscape:collect="always" stdDeviation="7.580558" id="feGaussianBlur3634"/>
    </filter>
  </defs>
  <sodipodi:namedview inkscape:window-height="913" inkscape:window-width="1280" inkscape:pageshadow="2" inkscape:pageopacity="0.0" guidetolerance="10.0" gridtolerance="10.0" objecttolerance="10.0" borderopacity="1.0" bordercolor="#666666" pagecolor="#ffffff" id="base" showgrid="false" showguides="true" inkscape:guide-bbox="true" inkscape:zoom="1.0794763" inkscape:cx="446.26929" inkscape:cy="261.9155" inkscape:window-x="-4" inkscape:window-y="20" inkscape:current-layer="svg2"/>
  <path id="path3563" style="opacity: 1; fill: rgb(102, 102, 102); fill-opacity: 1; fill-rule: nonzero; stroke: none; stroke-opacity: 1; filter: url(#filter3632);" d="M 260.3977,16.173902 C 232.96701,17.479522 205.23239,21.196632 179.63605,31.597702 C 154.30671,42.162622 131.29382,57.529502 109.76185,74.394922 C 92.499672,88.111282 77.078142,104.23927 64.835212,122.6114 C 49.734451,144.57588 38.658071,169.01772 29.334291,193.90719 C 22.564261,212.46699 18.035321,232.00483 17.713021,251.82228 C 16.837011,278.0066 19.933411,304.24556 25.817851,329.74404 C 32.925011,359.88123 45.295251,388.94421 63.461762,414.10409 C 75.767972,431.35646 90.759692,446.48047 106.35007,460.75392 C 118.30342,471.51126 130.92471,481.73423 145.2153,489.24625 C 155.63675,494.93017 166.68714,499.34383 177.89787,503.19963 C 193.13813,508.57692 208.43038,513.90212 224.0852,517.95515 C 242.4767,522.3176 261.58367,522.41204 280.31888,520.68675 C 295.11883,519.40176 309.8523,517.40381 324.52016,515.07032 C 345.97772,511.34955 367.46747,505.45905 386.17044,493.97615 C 397.06174,487.53064 407.55684,480.43096 417.89771,473.14265 C 439.54491,457.42504 459.4583,439.21858 476.55733,418.62359 C 487.06445,405.68778 495.55438,391.07043 501.06248,375.31857 C 507.60268,357.46924 512.36707,339.03442 516.99026,320.61555 C 521.65326,299.65428 523.32752,278.06391 522.53765,256.62115 C 521.7139,235.76314 518.14883,215.09844 513.18817,194.85168 C 509.55426,180.7117 504.97479,166.71811 498.33502,153.68397 C 488.69787,135.73828 474.82078,120.62532 461.37318,105.50676 C 440.4286,82.621512 416.59796,61.954892 389.10272,47.316972 C 367.38134,35.584692 343.69552,27.888122 319.60869,22.748752 C 300.18328,18.493142 280.3129,15.861442 260.3977,16.173902 z M 271.3352,23.236402 C 292.5742,23.548472 313.63192,27.277592 334.16554,32.534312 C 358.44901,38.895312 382.12489,48.430612 402.86904,62.725482 C 428.46219,80.067672 450.17881,102.51425 469.42442,126.56515 C 478.97125,138.7132 487.83447,151.50892 494.73113,165.36084 C 503.96861,185.97095 507.65369,208.45309 511.04984,230.6176 C 514.81933,258.43504 515.69401,286.9774 510.04941,314.60952 C 505.31282,339.03713 497.70371,362.89491 487.71021,385.6739 C 483.89155,393.98108 478.9164,401.69879 473.2772,408.88007 C 461.77207,423.78868 447.97637,436.71544 434.10715,449.37896 C 413.07493,468.25015 390.1726,485.3882 364.64093,497.70103 C 345.7394,506.65421 324.79936,509.89772 304.16689,511.95318 C 291.95424,513.06417 279.71581,513.97244 267.46496,514.5225 C 249.34599,515.09564 230.97592,513.52505 213.66045,507.90607 C 192.98473,501.94109 172.78644,494.27604 153.38854,484.95843 C 132.08514,473.99696 113.94668,457.95579 97.056762,441.1767 C 80.887872,425.08616 66.620312,406.97158 55.743911,386.87916 C 42.051911,361.60523 34.073971,333.55093 30.249471,305.14837 C 28.009111,288.74259 26.744671,272.18618 26.724271,255.62566 C 26.965311,236.64335 29.805371,217.58152 36.384931,199.72201 C 43.923081,177.5202 54.618261,156.46291 67.265892,136.75163 C 86.712632,107.37557 112.39484,82.234172 141.89771,63.017652 C 162.51823,49.365342 184.9066,38.001562 208.91194,31.695042 C 229.26746,26.310252 250.29705,23.631822 271.3352,23.236402 z M 78.394502,94.588012 L 94.582002,110.77551 C 99.931462,104.36532 105.88954,98.467812 112.30075,93.119262 L 96.082002,76.900502 C 89.881572,82.481992 83.977052,88.388652 78.394502,94.588012 z M 462.7669,443.9776 L 446.5794,427.7901 C 441.22994,434.20029 435.27187,440.0978 428.86065,445.44636 L 445.0794,461.6651 C 451.27984,456.08361 457.18435,450.17697 462.7669,443.9776 z M 444.95379,77.129162 L 428.76629,93.316662 C 435.17647,98.666122 441.07398,104.6242 446.42254,111.03541 L 462.64129,94.816662 C 457.0598,88.616232 451.15315,82.711712 444.95379,77.129162 z M 95.950322,461.68073 L 112.13782,445.49328 C 105.72764,440.14378 99.830132,434.18568 94.481572,427.77448 L 78.262822,443.99328 C 83.844312,450.19366 89.750962,456.09818 95.950322,461.68073 z"/>
  <path style="opacity: 1; fill: rgb(0, 0, 0); fill-opacity: 1; fill-rule: nonzero; stroke: none; stroke-opacity: 1; filter: url(#filter3456);" d="M 270.11085,35.788372 C 139.20292,35.788372 32.954611,142.03669 32.954611,272.94461 C 32.954611,403.85251 139.20292,510.10091 270.11085,510.10091 C 401.01878,510.10091 507.23585,403.85251 507.23585,272.94461 C 507.23585,142.03669 401.01878,35.788372 270.11085,35.788372 z M 270.11085,134.85087 C 346.32852,134.85088 408.17335,196.72695 408.17335,272.94461 C 408.17334,349.16231 346.32852,411.00711 270.11085,411.00711 C 193.89318,411.00711 132.0171,349.16231 132.0171,272.94461 C 132.01711,196.72695 193.89318,134.85087 270.11085,134.85087 z" id="path3406"/>
  <path style="opacity: 1; fill: url(#radialGradient3527) rgb(0, 0, 0); fill-opacity: 1; fill-rule: nonzero; stroke: none; stroke-opacity: 1;" d="M 259.97373,15.790062 C 232.54304,17.095682 204.80842,20.812792 179.21207,31.213862 C 153.88273,41.778782 130.86984,57.145662 109.33787,74.011082 C 92.075692,87.727442 76.654162,103.85543 64.411232,122.22756 C 49.310471,144.19204 38.234091,168.63388 28.910311,193.52335 C 22.140281,212.08315 17.611341,231.62099 17.289041,251.43844 C 16.413031,277.62276 19.509431,303.86172 25.393871,329.3602 C 32.501031,359.49739 44.871271,388.56037 63.037782,413.72025 C 75.343992,430.97262 90.335712,446.09663 105.92609,460.37008 C 117.87944,471.12742 130.50073,481.35039 144.79132,488.86241 C 155.21277,494.54633 166.26316,498.95999 177.47389,502.81579 C 192.71416,508.19308 208.00641,513.51828 223.66123,517.57131 C 242.05273,521.93376 261.1597,522.0282 279.8949,520.30291 C 294.69486,519.01792 309.42833,517.01997 324.09619,514.68648 C 345.55375,510.96571 367.0435,505.07521 385.74646,493.59231 C 396.63776,487.1468 407.13286,480.04712 417.47373,472.75881 C 439.12093,457.0412 459.03432,438.83474 476.13335,418.23975 C 486.64047,405.30394 495.1304,390.68659 500.6385,374.93473 C 507.1787,357.0854 511.94309,338.65058 516.56628,320.23171 C 521.22928,299.27044 522.90354,277.68007 522.11367,256.23731 C 521.28992,235.3793 517.72485,214.7146 512.76419,194.46784 C 509.13028,180.32786 504.55081,166.33427 497.91104,153.30013 C 488.27389,135.35444 474.3968,120.24148 460.9492,105.12292 C 440.00462,82.237672 416.17398,61.571052 388.67874,46.933132 C 366.95737,35.200852 343.27155,27.504282 319.18472,22.364912 C 299.75931,18.109302 279.88892,15.477602 259.97373,15.790062 z M 270.91123,22.852562 C 292.15022,23.164632 313.20795,26.893752 333.74157,32.150472 C 358.02504,38.511472 381.70092,48.046772 402.44506,62.341642 C 428.03821,79.683832 449.75483,102.13041 469.00044,126.18131 C 478.54727,138.32936 487.41049,151.12508 494.30715,164.977 C 503.54463,185.58711 507.22971,208.06925 510.62586,230.23376 C 514.39535,258.0512 515.27003,286.59356 509.62543,314.22568 C 504.88884,338.65329 497.27973,362.51107 487.28623,385.29006 C 483.46757,393.59724 478.49242,401.31495 472.85322,408.49623 C 461.34809,423.40484 447.55239,436.3316 433.68317,448.99512 C 412.65095,467.86631 389.74862,485.00436 364.21696,497.31719 C 345.31543,506.27037 324.37539,509.51388 303.74292,511.56934 C 291.53026,512.68033 279.29183,513.5886 267.04099,514.13866 C 248.92202,514.7118 230.55195,513.14121 213.23648,507.52223 C 192.56076,501.55725 172.36246,493.8922 152.96456,484.57459 C 131.66116,473.61312 113.5227,457.57195 96.632782,440.79286 C 80.463892,424.70232 66.196332,406.58774 55.319931,386.49532 C 41.627931,361.22139 33.649991,333.16709 29.825491,304.76453 C 27.585131,288.35875 26.320691,271.80234 26.300291,255.24182 C 26.541331,236.25951 29.381391,217.19768 35.960951,199.33817 C 43.499101,177.13636 54.194281,156.07907 66.841912,136.36779 C 86.288652,106.99173 111.97086,81.850332 141.47373,62.633812 C 162.09425,48.981502 184.48263,37.617722 208.48797,31.311202 C 228.84349,25.926412 249.87308,23.247982 270.91123,22.852562 z" id="path3508"/>
  <path style="opacity: 1; fill: rgb(226, 10, 8); fill-opacity: 1; fill-rule: nonzero; stroke: none; stroke-opacity: 1;" d="M 270.16159,31.783654 C 139.25366,31.783654 33.005352,138.03197 33.005352,268.9399 C 33.005352,399.84783 139.25366,506.09615 270.16159,506.09615 C 401.06952,506.09615 507.28659,399.84783 507.28659,268.9399 C 507.28659,138.03197 401.06952,31.783654 270.16159,31.783654 z M 270.16159,130.84615 C 346.37926,130.84616 408.22409,192.72223 408.22409,268.9399 C 408.22408,345.15757 346.37926,407.0024 270.16159,407.0024 C 193.94392,407.00239 132.06784,345.15757 132.06784,268.9399 C 132.06785,192.72223 193.94392,130.84615 270.16159,130.84615 z" id="path2382"/>
  <path style="opacity: 1; fill: url(#linearGradient3494) rgb(0, 0, 0); fill-opacity: 1; fill-rule: nonzero; stroke: none; stroke-opacity: 1;" d="M 77.970522,94.204172 L 94.158022,110.39167 C 99.507482,103.98148 105.46556,98.083972 111.87677,92.735422 L 95.658022,76.516662 C 89.457592,82.098152 83.553072,88.004812 77.970522,94.204172 z" id="path3490" sodipodi:nodetypes="ccccc"/>
  <path style="opacity: 1; fill: url(#linearGradient3478) rgb(0, 0, 0); fill-opacity: 1; fill-rule: nonzero; stroke: none; stroke-opacity: 1;" d="M 462.34292,443.59376 L 446.15542,427.40626 C 440.80596,433.81645 434.84789,439.71396 428.43667,445.06252 L 444.65542,461.28126 C 450.85586,455.69977 456.76037,449.79313 462.34292,443.59376 z" id="path3474" sodipodi:nodetypes="ccccc"/>
  <path style="opacity: 1; fill: url(#linearGradient3462) rgb(0, 0, 0); fill-opacity: 1; fill-rule: nonzero; stroke: none; stroke-opacity: 1;" d="M 444.52981,76.745322 L 428.34231,92.932822 C 434.75249,98.282282 440.65,104.24036 445.99856,110.65157 L 462.21731,94.432822 C 456.63582,88.232392 450.72917,82.327872 444.52981,76.745322 z" id="path3460" sodipodi:nodetypes="ccccc"/>
  <path style="opacity: 1; fill: url(#linearGradient3486) rgb(0, 0, 0); fill-opacity: 1; fill-rule: nonzero; stroke: none; stroke-opacity: 1;" d="M 95.526342,461.29689 L 111.71384,445.10944 C 105.30366,439.75994 99.406152,433.80184 94.057592,427.39064 L 77.838842,443.60944 C 83.420332,449.80982 89.326982,455.71434 95.526342,461.29689 z" id="path3482" sodipodi:nodetypes="ccccc"/>
  <path style="opacity: 1; fill: rgb(255, 85, 85); fill-opacity: 1; fill-rule: nonzero; stroke: none; stroke-opacity: 1; filter: url(#filter3241);" d="M 270.16159,71.768032 C 161.32436,71.768032 72.974092,160.1183 72.974092,268.95553 C 72.974092,377.79276 161.32436,466.11179 270.16159,466.11178 C 378.99882,466.11178 467.31785,377.79276 467.31784,268.95553 C 467.31784,160.1183 378.99882,71.768022 270.16159,71.768032 z M 270.16159,101.26803 C 362.72748,101.26804 437.84909,176.38965 437.84909,268.95553 C 437.84908,361.52141 362.72747,436.64303 270.16159,436.64303 C 177.59571,436.64301 102.44284,361.52141 102.44284,268.95553 C 102.44284,176.38964 177.59571,101.26803 270.16159,101.26803 z" id="path3180"/>
  <path style="opacity: 1; fill: url(#linearGradient3380) rgb(0, 0, 0); fill-opacity: 1; fill-rule: nonzero; stroke: none; stroke-opacity: 1;" d="M 111.56785,92.658652 C 105.36742,98.241202 99.462902,104.14572 93.880352,110.34615 L 164.0991,180.5649 C 169.44274,174.1603 175.3523,168.22283 181.75535,162.8774 L 111.56785,92.658652 z" id="path3300"/>
  <path style="opacity: 1; fill: url(#linearGradient3396) rgb(0, 0, 0); fill-opacity: 1; fill-rule: nonzero; stroke: none; stroke-opacity: 1;" d="M 376.19285,357.3149 C 370.83922,363.73036 364.92254,369.65077 358.50535,375.0024 L 428.7241,445.22116 C 434.92343,439.63876 440.83011,433.73386 446.4116,427.53366 L 376.19285,357.3149 z" id="path3293"/>
  <path style="opacity: 1; fill: url(#linearGradient3388) rgb(0, 0, 0); fill-opacity: 1; fill-rule: nonzero; stroke: none; stroke-opacity: 1;" d="M 428.7241,92.658652 L 358.5366,162.84615 C 364.94678,168.19561 370.84429,174.15369 376.19285,180.5649 L 446.4116,110.34615 C 440.83011,104.14572 434.92346,98.241202 428.7241,92.658652 z" id="path3304"/>
  <path style="opacity: 1; fill: url(#linearGradient3404) rgb(0, 0, 0); fill-opacity: 1; fill-rule: nonzero; stroke: none; stroke-opacity: 1;" d="M 164.0991,357.3149 L 93.880352,427.53365 C 99.462912,433.73384 105.36745,439.63881 111.56785,445.22115 L 181.7866,375.0024 C 175.37058,369.6514 169.45212,363.72893 164.0991,357.3149 z" id="rect3285"/>
</svg>