<?xml version="1.0" encoding="UTF-8" standalone="no"?>
<!-- Created with Inkscape (http://www.inkscape.org/) -->
<svg xmlns:dc="http://purl.org/dc/elements/1.1/" xmlns:cc="http://creativecommons.org/ns#" xmlns:rdf="http://www.w3.org/1999/02/22-rdf-syntax-ns#" xmlns:svg="http://www.w3.org/2000/svg" xmlns="http://www.w3.org/2000/svg" xmlns:xlink="http://www.w3.org/1999/xlink" xmlns:sodipodi="http://sodipodi.sourceforge.net/DTD/sodipodi-0.dtd" xmlns:inkscape="http://www.inkscape.org/namespaces/inkscape" width="100.844" height="178.01701" id="svg3996" sodipodi:version="0.32" inkscape:version="0.46" version="1.0" sodipodi:docname="RubyRed.svg" inkscape:output_extension="org.inkscape.output.svg.inkscape">
  <defs id="defs3998">
    <linearGradient inkscape:collect="always" id="linearGradient3876">
      <stop style="stop-color: rgb(255, 255, 255); stop-opacity: 1;" offset="0" id="stop3878"/>
      <stop style="stop-color: rgb(255, 255, 255); stop-opacity: 0.0775862;" offset="1" id="stop3880"/>
    </linearGradient>
    <linearGradient inkscape:collect="always" xlink:href="#linearGradient3876" id="linearGradient3954" gradientUnits="userSpaceOnUse" x1="326.54507" y1="679.50507" x2="322.85715" y2="685.21936"/>
    <linearGradient inkscape:collect="always" id="linearGradient3858">
      <stop style="stop-color: rgb(255, 255, 255); stop-opacity: 1;" offset="0" id="stop3860"/>
      <stop style="stop-color: rgb(255, 255, 255); stop-opacity: 0;" offset="1" id="stop3862"/>
    </linearGradient>
    <linearGradient inkscape:collect="always" xlink:href="#linearGradient3858" id="linearGradient3952" gradientUnits="userSpaceOnUse" x1="351.11993" y1="686.2049" x2="351.4718" y2="691.93115"/>
    <linearGradient inkscape:collect="always" id="linearGradient3838">
      <stop style="stop-color: rgb(255, 255, 255); stop-opacity: 1;" offset="0" id="stop3840"/>
      <stop style="stop-color: rgb(255, 255, 255); stop-opacity: 0;" offset="1" id="stop3842"/>
    </linearGradient>
    <linearGradient inkscape:collect="always" xlink:href="#linearGradient3838" id="linearGradient3950" gradientUnits="userSpaceOnUse" x1="123.52021" y1="518.38196" x2="87.290634" y2="508.3118"/>
    <inkscape:perspective sodipodi:type="inkscape:persp3d" inkscape:vp_x="0 : 526.18109 : 1" inkscape:vp_y="0 : 1000 : 0" inkscape:vp_z="744.09448 : 526.18109 : 1" inkscape:persp3d-origin="372.04724 : 350.78739 : 1" id="perspective4004"/>
    <linearGradient inkscape:collect="always" xlink:href="#linearGradient3838" id="linearGradient4089" gradientUnits="userSpaceOnUse" x1="123.52021" y1="518.38196" x2="87.290634" y2="508.3118"/>
    <linearGradient inkscape:collect="always" xlink:href="#linearGradient3858" id="linearGradient4091" gradientUnits="userSpaceOnUse" x1="351.11993" y1="686.2049" x2="351.4718" y2="691.93115"/>
    <linearGradient inkscape:collect="always" xlink:href="#linearGradient3876" id="linearGradient4093" gradientUnits="userSpaceOnUse" x1="326.54507" y1="679.50507" x2="322.85715" y2="685.21936"/>
  </defs>
  <sodipodi:namedview id="base" pagecolor="#ffffff" bordercolor="#666666" borderopacity="1.0" gridtolerance="10000" guidetolerance="10" objecttolerance="10" inkscape:pageopacity="0.0" inkscape:pageshadow="2" inkscape:zoom="1.4" inkscape:cx="151.57893" inkscape:cy="36.69576" inkscape:document-units="px" inkscape:current-layer="layer1" showgrid="false" inkscape:window-width="1152" inkscape:window-height="794" inkscape:window-x="0" inkscape:window-y="45"/>
  <metadata id="metadata4001">
    <rdf:RDF>
      <cc:Work rdf:about="">
        <dc:format>image/svg+xml</dc:format>
        <dc:type rdf:resource="http://purl.org/dc/dcmitype/StillImage"/>
      </cc:Work>
    </rdf:RDF>
  </metadata>
  <g inkscape:label="Layer 1" inkscape:groupmode="layer" id="layer1" transform="translate(-247.618, -537.533)">
    <g id="g3884" transform="matrix(0.999999, 0.00103203, -0.00103203, 0.999999, -54.26, -122.277)">
      <path transform="matrix(0.384562, 0.602656, -1.38354, 0.132099, 1022.05, 543.208)" d="M 124.24876,512.68817 A 21.213203,21.465742 0 1 1 81.822357,512.68817 A 21.213203,21.465742 0 1 1 124.24876,512.68817 z" sodipodi:ry="21.465742" sodipodi:rx="21.213203" sodipodi:cy="512.68817" sodipodi:cx="103.03556" id="path3202" style="opacity: 0.892241; fill: rgb(143, 0, 0); fill-opacity: 1; stroke: rgb(205, 0, 0); stroke-opacity: 1;" sodipodi:type="arc"/>
      <path sodipodi:nodetypes="cccc" id="path3204" d="M 337.30382,684.33848 L 351.71382,715.07679 L 366.45031,684.90483 C 356.79434,686.65739 346.9598,686.15671 337.30382,684.33848 z" style="opacity: 0.892241; fill: rgb(143, 0, 0); fill-opacity: 1; fill-rule: evenodd; stroke: rgb(205, 0, 0); stroke-width: 1px; stroke-linecap: butt; stroke-linejoin: miter; stroke-opacity: 1;"/>
      <path sodipodi:nodetypes="cccc" id="path3206" d="M 351.20874,717.09709 L 354.23919,741.34075 L 372.42194,713.8141 C 366.6728,715.78971 358.92709,716.43428 351.20874,717.09709 z" style="opacity: 0.892241; fill: rgb(143, 0, 0); fill-opacity: 1; fill-rule: evenodd; stroke: rgb(205, 0, 0); stroke-width: 1px; stroke-linecap: butt; stroke-linejoin: miter; stroke-opacity: 1;"/>
      <path sodipodi:nodetypes="cccc" id="path3208" d="M 351.57362,716.9864 L 353.51042,742.59067 L 329.74559,714.51467 C 335.56587,716.26962 343.83561,716.61838 351.57362,716.9864 z" style="opacity: 1; fill: rgb(213, 32, 32); fill-opacity: 1; fill-rule: evenodd; stroke: rgb(205, 0, 0); stroke-width: 1px; stroke-linecap: butt; stroke-linejoin: miter; stroke-opacity: 1;"/>
      <path sodipodi:nodetypes="cccc" id="path3210" d="M 352.21889,716.08694 L 366.92738,685.10878 L 389.08946,707.24811 C 381.79807,710.23541 364.794,718.53481 352.21889,716.08694 z" style="opacity: 0.892241; fill: rgb(153, 0, 0); fill-opacity: 1; fill-rule: evenodd; stroke: rgb(205, 0, 0); stroke-width: 1px; stroke-linecap: butt; stroke-linejoin: miter; stroke-opacity: 1;"/>
      <path sodipodi:nodetypes="cccc" id="path3212" d="M 367.0214,684.6992 C 377.73549,682.74268 381.93689,679.17621 383.62854,673.89563 L 389.25355,706.5742 L 367.0214,684.6992 z" style="opacity: 0.892241; fill: rgb(190, 14, 9); fill-opacity: 1; fill-rule: evenodd; stroke: rgb(205, 0, 0); stroke-width: 1px; stroke-linecap: butt; stroke-linejoin: miter; stroke-opacity: 1;"/>
      <path sodipodi:nodetypes="ccscc" id="path3214" d="M 384.5214,677.1992 L 399.78926,682.55634 C 400.91153,685.04898 403.11829,690.12682 401.30711,694.78849 C 399.22135,700.1569 395.07764,704.11935 389.96783,707.28848 L 384.07497,676.93134" style="opacity: 0.892241; fill: rgb(143, 0, 0); fill-opacity: 1; fill-rule: evenodd; stroke: rgb(205, 0, 0); stroke-width: 1px; stroke-linecap: butt; stroke-linejoin: miter; stroke-opacity: 1;"/>
      <path sodipodi:nodetypes="cccc" id="path3216" d="M 381.3964,668.4492 C 382.89057,670.42502 383.47044,672.37589 384.25354,676.48491 L 400.05712,682.10991 L 381.3964,668.4492 z" style="opacity: 0.801724; fill: rgb(143, 0, 0); fill-opacity: 1; fill-rule: evenodd; stroke: rgb(205, 0, 0); stroke-width: 1px; stroke-linecap: butt; stroke-linejoin: miter; stroke-opacity: 1;"/>
      <path sodipodi:nodetypes="cccc" id="path3218" d="M 352.06383,716.31487 L 337.53391,684.80099 L 309.12183,704.79747 C 313.96764,709.24578 339.48832,718.76301 352.06383,716.31487 z" style="opacity: 0.892241; fill: rgb(166, 0, 0); fill-opacity: 1; fill-rule: evenodd; stroke: rgb(205, 0, 0); stroke-width: 1px; stroke-linecap: butt; stroke-linejoin: miter; stroke-opacity: 1;"/>
      <path sodipodi:nodetypes="cccc" id="path3220" d="M 336.96331,684.47373 C 326.74928,680.69307 321.97827,676.98921 321.22573,671.49559 L 309.3392,704.02131 L 336.96331,684.47373 z" style="opacity: 0.892241; fill: rgb(143, 0, 0); fill-opacity: 1; fill-rule: evenodd; stroke: rgb(205, 0, 0); stroke-width: 1px; stroke-linecap: butt; stroke-linejoin: miter; stroke-opacity: 1;"/>
      <path sodipodi:nodetypes="cccc" id="path3222" d="M 322.87828,668.13635 L 304.66399,683.76135 C 299.69905,694.29013 308.01945,702.87633 308.59256,704.47114 L 322.87828,668.13635 z" style="opacity: 0.892241; fill: rgb(173, 15, 15); fill-opacity: 1; fill-rule: evenodd; stroke: rgb(205, 0, 0); stroke-width: 1px; stroke-linecap: butt; stroke-linejoin: miter; stroke-opacity: 1;"/>
      <path sodipodi:nodetypes="cccc" id="path3224" d="M 308.37601,704.77765 L 353.62855,743.18134 L 329.69997,713.89563 C 321.45683,711.99146 315.22093,708.08004 308.37601,704.77765 z" style="opacity: 0.892241; fill: rgb(143, 0, 0); fill-opacity: 1; fill-rule: evenodd; stroke: rgb(205, 0, 0); stroke-width: 1px; stroke-linecap: butt; stroke-linejoin: miter; stroke-opacity: 1;"/>
      <path sodipodi:nodetypes="cccc" id="path3226" d="M 389.78477,706.99262 L 353.2714,743.71706 L 372.19998,714.25278 C 378.48747,711.78413 384.15121,709.29779 389.78477,706.99262 z" style="opacity: 0.767241; fill: rgb(153, 0, 0); fill-opacity: 1; fill-rule: evenodd; stroke: rgb(205, 0, 0); stroke-width: 1px; stroke-linecap: butt; stroke-linejoin: miter; stroke-opacity: 1;"/>
      <path transform="matrix(0.384562, 0.602656, -1.38354, 0.132099, 1022.75, 542.724)" d="M 124.24876,512.68817 A 21.213203,21.465742 0 1 1 81.822357,512.68817 A 21.213203,21.465742 0 1 1 124.24876,512.68817 z" sodipodi:ry="21.465742" sodipodi:rx="21.213203" sodipodi:cy="512.68817" sodipodi:cx="103.03556" id="path3836" style="opacity: 0.405172; fill: url(#linearGradient3950) rgb(0, 0, 0); fill-opacity: 1; stroke: none; stroke-opacity: 1;" sodipodi:type="arc"/>
      <path sodipodi:nodetypes="cccc" id="path3856" d="M 337.96999,684.95487 L 352.37999,715.69318 L 367.11648,685.52122 C 357.46051,687.27378 347.62597,686.7731 337.96999,684.95487 z" style="opacity: 0.892241; fill: url(#linearGradient3952) rgb(0, 0, 0); fill-opacity: 1; fill-rule: evenodd; stroke: none; stroke-width: 1px; stroke-linecap: butt; stroke-linejoin: miter; stroke-opacity: 1;"/>
      <path sodipodi:nodetypes="cccc" id="path3866" d="M 336.66919,684.79175 C 326.45516,681.01109 321.68415,677.30723 320.93161,671.81361 L 309.04508,704.33933 L 336.66919,684.79175 z" style="opacity: 0.892241; fill: url(#linearGradient3954) rgb(0, 0, 0); fill-opacity: 1; fill-rule: evenodd; stroke: none; stroke-width: 1px; stroke-linecap: butt; stroke-linejoin: miter; stroke-opacity: 1;"/>
    </g>
    <g id="g4055" transform="matrix(0.999999, -0.00103203, -0.00103203, -0.999999, -53.321, 1375.36)" style="opacity: 0.383621;">
      <path transform="matrix(0.384562, 0.602656, -1.38354, 0.132099, 1022.05, 543.208)" d="M 124.24876,512.68817 A 21.213203,21.465742 0 1 1 81.822357,512.68817 A 21.213203,21.465742 0 1 1 124.24876,512.68817 z" sodipodi:ry="21.465742" sodipodi:rx="21.213203" sodipodi:cy="512.68817" sodipodi:cx="103.03556" id="path4057" style="opacity: 0.892241; fill: rgb(143, 0, 0); fill-opacity: 1; stroke: rgb(205, 0, 0); stroke-opacity: 1;" sodipodi:type="arc"/>
      <path sodipodi:nodetypes="cccc" id="path4059" d="M 337.30382,684.33848 L 351.71382,715.07679 L 366.45031,684.90483 C 356.79434,686.65739 346.9598,686.15671 337.30382,684.33848 z" style="opacity: 0.892241; fill: rgb(143, 0, 0); fill-opacity: 1; fill-rule: evenodd; stroke: rgb(205, 0, 0); stroke-width: 1px; stroke-linecap: butt; stroke-linejoin: miter; stroke-opacity: 1;"/>
      <path sodipodi:nodetypes="cccc" id="path4061" d="M 351.20874,717.09709 L 354.23919,741.34075 L 372.42194,713.8141 C 366.6728,715.78971 358.92709,716.43428 351.20874,717.09709 z" style="opacity: 0.892241; fill: rgb(143, 0, 0); fill-opacity: 1; fill-rule: evenodd; stroke: rgb(205, 0, 0); stroke-width: 1px; stroke-linecap: butt; stroke-linejoin: miter; stroke-opacity: 1;"/>
      <path sodipodi:nodetypes="cccc" id="path4063" d="M 351.57362,716.9864 L 353.51042,742.59067 L 329.74559,714.51467 C 335.56587,716.26962 343.83561,716.61838 351.57362,716.9864 z" style="opacity: 1; fill: rgb(213, 32, 32); fill-opacity: 1; fill-rule: evenodd; stroke: rgb(205, 0, 0); stroke-width: 1px; stroke-linecap: butt; stroke-linejoin: miter; stroke-opacity: 1;"/>
      <path sodipodi:nodetypes="cccc" id="path4065" d="M 352.21889,716.08694 L 366.92738,685.10878 L 389.08946,707.24811 C 381.79807,710.23541 364.794,718.53481 352.21889,716.08694 z" style="opacity: 0.892241; fill: rgb(153, 0, 0); fill-opacity: 1; fill-rule: evenodd; stroke: rgb(205, 0, 0); stroke-width: 1px; stroke-linecap: butt; stroke-linejoin: miter; stroke-opacity: 1;"/>
      <path sodipodi:nodetypes="cccc" id="path4067" d="M 367.0214,684.6992 C 377.73549,682.74268 381.93689,679.17621 383.62854,673.89563 L 389.25355,706.5742 L 367.0214,684.6992 z" style="opacity: 0.892241; fill: rgb(190, 14, 9); fill-opacity: 1; fill-rule: evenodd; stroke: rgb(205, 0, 0); stroke-width: 1px; stroke-linecap: butt; stroke-linejoin: miter; stroke-opacity: 1;"/>
      <path sodipodi:nodetypes="ccscc" id="path4069" d="M 384.5214,677.1992 L 399.78926,682.55634 C 400.91153,685.04898 403.11829,690.12682 401.30711,694.78849 C 399.22135,700.1569 395.07764,704.11935 389.96783,707.28848 L 384.07497,676.93134" style="opacity: 0.892241; fill: rgb(143, 0, 0); fill-opacity: 1; fill-rule: evenodd; stroke: rgb(205, 0, 0); stroke-width: 1px; stroke-linecap: butt; stroke-linejoin: miter; stroke-opacity: 1;"/>
      <path sodipodi:nodetypes="cccc" id="path4071" d="M 381.3964,668.4492 C 382.89057,670.42502 383.47044,672.37589 384.25354,676.48491 L 400.05712,682.10991 L 381.3964,668.4492 z" style="opacity: 0.801724; fill: rgb(143, 0, 0); fill-opacity: 1; fill-rule: evenodd; stroke: rgb(205, 0, 0); stroke-width: 1px; stroke-linecap: butt; stroke-linejoin: miter; stroke-opacity: 1;"/>
      <path sodipodi:nodetypes="cccc" id="path4073" d="M 352.06383,716.31487 L 337.53391,684.80099 L 309.12183,704.79747 C 313.96764,709.24578 339.48832,718.76301 352.06383,716.31487 z" style="opacity: 0.892241; fill: rgb(166, 0, 0); fill-opacity: 1; fill-rule: evenodd; stroke: rgb(205, 0, 0); stroke-width: 1px; stroke-linecap: butt; stroke-linejoin: miter; stroke-opacity: 1;"/>
      <path sodipodi:nodetypes="cccc" id="path4075" d="M 336.96331,684.47373 C 326.74928,680.69307 321.97827,676.98921 321.22573,671.49559 L 309.3392,704.02131 L 336.96331,684.47373 z" style="opacity: 0.892241; fill: rgb(143, 0, 0); fill-opacity: 1; fill-rule: evenodd; stroke: rgb(205, 0, 0); stroke-width: 1px; stroke-linecap: butt; stroke-linejoin: miter; stroke-opacity: 1;"/>
      <path sodipodi:nodetypes="cccc" id="path4077" d="M 322.87828,668.13635 L 304.66399,683.76135 C 299.69905,694.29013 308.01945,702.87633 308.59256,704.47114 L 322.87828,668.13635 z" style="opacity: 0.892241; fill: rgb(173, 15, 15); fill-opacity: 1; fill-rule: evenodd; stroke: rgb(205, 0, 0); stroke-width: 1px; stroke-linecap: butt; stroke-linejoin: miter; stroke-opacity: 1;"/>
      <path sodipodi:nodetypes="cccc" id="path4079" d="M 308.37601,704.77765 L 353.62855,743.18134 L 329.69997,713.89563 C 321.45683,711.99146 315.22093,708.08004 308.37601,704.77765 z" style="opacity: 0.892241; fill: rgb(143, 0, 0); fill-opacity: 1; fill-rule: evenodd; stroke: rgb(205, 0, 0); stroke-width: 1px; stroke-linecap: butt; stroke-linejoin: miter; stroke-opacity: 1;"/>
      <path sodipodi:nodetypes="cccc" id="path4081" d="M 389.78477,706.99262 L 353.2714,743.71706 L 372.19998,714.25278 C 378.48747,711.78413 384.15121,709.29779 389.78477,706.99262 z" style="opacity: 0.767241; fill: rgb(153, 0, 0); fill-opacity: 1; fill-rule: evenodd; stroke: rgb(205, 0, 0); stroke-width: 1px; stroke-linecap: butt; stroke-linejoin: miter; stroke-opacity: 1;"/>
      <path transform="matrix(0.384562, 0.602656, -1.38354, 0.132099, 1022.75, 542.724)" d="M 124.24876,512.68817 A 21.213203,21.465742 0 1 1 81.822357,512.68817 A 21.213203,21.465742 0 1 1 124.24876,512.68817 z" sodipodi:ry="21.465742" sodipodi:rx="21.213203" sodipodi:cy="512.68817" sodipodi:cx="103.03556" id="path4083" style="opacity: 0.405172; fill: url(#linearGradient4089) rgb(0, 0, 0); fill-opacity: 1; stroke: none; stroke-opacity: 1;" sodipodi:type="arc"/>
      <path sodipodi:nodetypes="cccc" id="path4085" d="M 337.96999,684.95487 L 352.37999,715.69318 L 367.11648,685.52122 C 357.46051,687.27378 347.62597,686.7731 337.96999,684.95487 z" style="opacity: 0.892241; fill: url(#linearGradient4091) rgb(0, 0, 0); fill-opacity: 1; fill-rule: evenodd; stroke: none; stroke-width: 1px; stroke-linecap: butt; stroke-linejoin: miter; stroke-opacity: 1;"/>
      <path sodipodi:nodetypes="cccc" id="path4087" d="M 336.66919,684.79175 C 326.45516,681.01109 321.68415,677.30723 320.93161,671.81361 L 309.04508,704.33933 L 336.66919,684.79175 z" style="opacity: 0.892241; fill: url(#linearGradient4093) rgb(0, 0, 0); fill-opacity: 1; fill-rule: evenodd; stroke: none; stroke-width: 1px; stroke-linecap: butt; stroke-linejoin: miter; stroke-opacity: 1;"/>
    </g>
  </g>
</svg>