<?xml version="1.0" encoding="UTF-8"?>
<!-- Generator: Adobe Illustrator 12.0.1, SVG Export Plug-In . SVG Version: 6.00 Build 51448)  -->
<!DOCTYPE svg PUBLIC "-//W3C//DTD SVG 1.1//EN" "http://www.w3.org/Graphics/SVG/1.1/DTD/svg11.dtd" [
	<!ENTITY ns_svg "http://www.w3.org/2000/svg">
	<!ENTITY ns_xlink "http://www.w3.org/1999/xlink">
]>
<svg version="1.1" id="Layer_1" xmlns="http://www.w3.org/2000/svg" xmlns:xlink="http://www.w3.org/1999/xlink" width="394.664" height="558.055" viewBox="0 0 394.664 558.055" overflow="visible" enable-background="new 0 0 394.664 558.055" xml:space="preserve">
<path fill="#D1D3D4" d="M159.913,201.463c46.575,34.697,81.758,46.493,113.893,40.593c32.136-5.896,43.344-20.908,51.146-43.534  c7.796-22.623-3.806-55.9-3.806-55.9l3.648,1.54c0.02,0.054,8.407,20.434,8.079,43.782c-0.328,23.455-13.369,56.591-48.773,68.401  c-29.503,9.84-60.632-2.016-84.554-14.339c-23.979-12.357-40.692-27.127-40.738-27.167L159.913,201.463"/>
<g>
	<defs>
		<path id="XMLID_1_" d="M159.913,201.463c46.575,34.697,81.758,46.493,113.893,40.593c32.136-5.896,43.344-20.908,51.146-43.534    c7.796-22.623-3.806-55.9-3.806-55.9l3.648,1.54c0.02,0.054,8.407,20.434,8.079,43.782c-0.328,23.455-13.369,56.591-48.773,68.401    c-29.503,9.84-60.632-2.016-84.554-14.339c-23.979-12.357-40.692-27.127-40.738-27.167L159.913,201.463"/>
	</defs>
	<clipPath id="XMLID_33_">
		<use xlink:href="#XMLID_1_"/>
	</clipPath>
	<rect x="267.176" y="234.331" clip-path="url(#XMLID_33_)" fill="#FFFFFF" width="15.846" height="35.684"/>
</g>
<g>
	<defs>
		<polyline id="XMLID_3_" points="308.499,78.451 322.073,80.844 279.638,321.547 266.063,319.15 308.499,78.451"/>
	</defs>
	<clipPath id="XMLID_34_">
		<use xlink:href="#XMLID_3_"/>
	</clipPath>
	<g clip-path="url(#XMLID_34_)">
		<defs>
			<path id="XMLID_5_" d="M159.913,201.463c46.575,34.697,81.758,46.493,113.893,40.593c32.136-5.896,43.344-20.908,51.146-43.534     c7.796-22.623-3.806-55.9-3.806-55.9l3.648,1.54c0.02,0.054,8.407,20.434,8.079,43.782     c-0.328,23.455-13.369,56.591-48.773,68.401c-29.503,9.84-60.632-2.016-84.554-14.339     c-23.979-12.357-40.692-27.127-40.738-27.167L159.913,201.463"/>
		</defs>
		<clipPath id="XMLID_35_">
			<use xlink:href="#XMLID_5_"/>
		</clipPath>
		<polyline clip-path="url(#XMLID_35_)" fill="#6D6F71" points="268.327,319.539 266.063,319.141 308.509,78.443 310.771,78.842"/>
		<polyline clip-path="url(#XMLID_35_)" fill="#808284" points="270.59,319.938 268.327,319.539 310.771,78.842 313.034,79.24"/>
		<polyline clip-path="url(#XMLID_35_)" fill="#939598" points="272.854,320.338 270.59,319.938 313.034,79.24 315.297,79.64"/>
		<polyline clip-path="url(#XMLID_35_)" fill="#A7A9AC" points="275.118,320.736 272.854,320.338 315.297,79.64 317.558,80.041"/>
		<polyline clip-path="url(#XMLID_35_)" fill="#BCBEC0" points="277.379,321.138 275.118,320.736 317.558,80.041 319.821,80.438"/>
		<polyline clip-path="url(#XMLID_35_)" fill="#D1D3D4" points="279.642,321.537 277.379,321.138 319.821,80.438 322.086,80.837"/>
	</g>
</g>
<g>
	<defs>
		<polyline id="XMLID_7_" points="288.964,78.451 302.537,80.844 260.1,321.547 246.524,319.15 288.964,78.451"/>
	</defs>
	<clipPath id="XMLID_36_">
		<use xlink:href="#XMLID_7_"/>
	</clipPath>
	<g clip-path="url(#XMLID_36_)">
		<defs>
			<path id="XMLID_9_" d="M159.913,201.463c46.575,34.697,81.758,46.493,113.893,40.593c32.136-5.896,43.344-20.908,51.146-43.534     c7.796-22.623-3.806-55.9-3.806-55.9l3.648,1.54c0.02,0.054,8.407,20.434,8.079,43.782     c-0.328,23.455-13.369,56.591-48.773,68.401c-29.503,9.84-60.632-2.016-84.554-14.339     c-23.979-12.357-40.692-27.127-40.738-27.167L159.913,201.463"/>
		</defs>
		<clipPath id="XMLID_37_">
			<use xlink:href="#XMLID_9_"/>
		</clipPath>
		<polyline clip-path="url(#XMLID_37_)" fill="#6D6F71" points="300.27,80.451 302.531,80.849 260.09,321.549 257.825,321.149"/>
		<polyline clip-path="url(#XMLID_37_)" fill="#808284" points="298.006,80.053 300.27,80.451 257.825,321.149 255.562,320.751"/>
		<polyline clip-path="url(#XMLID_37_)" fill="#939598" points="295.738,79.654 298.006,80.053 255.562,320.751 253.299,320.35"/>
		<polyline clip-path="url(#XMLID_37_)" fill="#A7A9AC" points="293.479,79.256 295.738,79.654 253.299,320.35 251.037,319.95"/>
		<polyline clip-path="url(#XMLID_37_)" fill="#BCBEC0" points="291.215,78.854 293.479,79.256 251.037,319.95 248.773,319.552"/>
		<polyline clip-path="url(#XMLID_37_)" fill="#D1D3D4" points="288.952,78.456 291.215,78.854 248.773,319.552 246.511,319.153"/>
	</g>
</g>
<g>
	<defs>
		<polyline id="XMLID_11_" points="208.387,15.168 221.962,17.562 179.522,258.263 165.949,255.872 208.387,15.168"/>
	</defs>
	<clipPath id="XMLID_38_">
		<use xlink:href="#XMLID_11_"/>
	</clipPath>
	<g clip-path="url(#XMLID_38_)">
		<defs>
			<path id="XMLID_13_" d="M159.913,201.463c46.575,34.697,81.758,46.493,113.893,40.593c32.136-5.896,43.344-20.908,51.146-43.534     c7.796-22.623-3.806-55.9-3.806-55.9l3.648,1.54c0.02,0.054,8.407,20.434,8.079,43.782     c-0.328,23.455-13.369,56.591-48.773,68.401c-29.503,9.84-60.632-2.016-84.554-14.339     c-23.979-12.357-40.692-27.127-40.738-27.167L159.913,201.463"/>
		</defs>
		<clipPath id="XMLID_39_">
			<use xlink:href="#XMLID_13_"/>
		</clipPath>
		<polyline clip-path="url(#XMLID_39_)" fill="#6D6F71" points="168.217,256.275 165.956,255.876 208.399,15.178 210.66,15.577"/>
		<polyline clip-path="url(#XMLID_39_)" fill="#808284" points="170.477,256.674 168.217,256.275 210.66,15.577 212.92,15.979"/>
		<polyline clip-path="url(#XMLID_39_)" fill="#939598" points="172.74,257.073 170.477,256.674 212.92,15.979 215.178,16.375"/>
		<polyline clip-path="url(#XMLID_39_)" fill="#A7A9AC" points="175,257.469 172.74,257.073 215.178,16.375 217.441,16.775"/>
		<polyline clip-path="url(#XMLID_39_)" fill="#BCBEC0" points="177.26,257.868 175,257.469 217.441,16.775 219.699,17.174"/>
		<polyline clip-path="url(#XMLID_39_)" fill="#D1D3D4" points="179.52,258.268 177.26,257.868 219.699,17.174 221.962,17.572"/>
	</g>
</g>
<g>
	<defs>
		<polyline id="XMLID_15_" points="324.36,19.323 338.144,19.323 338.163,263.729 324.377,263.729 324.36,19.323"/>
	</defs>
	<clipPath id="XMLID_40_">
		<use xlink:href="#XMLID_15_"/>
	</clipPath>
	<g clip-path="url(#XMLID_40_)">
		<defs>
			<path id="XMLID_17_" d="M159.913,201.463c46.575,34.697,81.758,46.493,113.893,40.593c32.136-5.896,43.344-20.908,51.146-43.534     c7.796-22.623-3.806-55.9-3.806-55.9l3.648,1.54c0.02,0.054,8.407,20.434,8.079,43.782     c-0.328,23.455-13.369,56.591-48.773,68.401c-29.503,9.84-60.632-2.016-84.554-14.339     c-23.979-12.357-40.692-27.127-40.738-27.167L159.913,201.463"/>
		</defs>
		<clipPath id="XMLID_41_">
			<use xlink:href="#XMLID_17_"/>
		</clipPath>
		<rect x="331.258" y="19.305" clip-path="url(#XMLID_41_)" fill="#939598" width="2.297" height="244.409"/>
		<rect x="328.957" y="19.305" clip-path="url(#XMLID_41_)" fill="#A7A9AC" width="2.299" height="244.409"/>
		<rect x="326.66" y="19.305" clip-path="url(#XMLID_41_)" fill="#BCBEC0" width="2.297" height="244.409"/>
		<rect x="324.363" y="19.305" clip-path="url(#XMLID_41_)" fill="#D1D3D4" width="2.297" height="244.409"/>
	</g>
</g>
<path fill="none" stroke="#000000" stroke-width="1.629" stroke-miterlimit="3.864" d="M159.913,201.463  c46.575,34.697,81.758,46.493,113.893,40.593c32.136-5.896,43.344-20.908,51.146-43.534c7.796-22.623-3.806-55.9-3.806-55.9  l3.648,1.54c0.02,0.054,8.407,20.434,8.079,43.782c-0.328,23.455-13.369,56.591-48.773,68.401  c-29.503,9.84-60.632-2.016-84.554-14.339c-23.979-12.357-40.692-27.127-40.738-27.167L159.913,201.463z"/>
<circle cx="51.187" cy="285.597" r="44.454"/>
<circle fill="none" stroke="#000000" stroke-width="1.629" stroke-miterlimit="3.864" cx="51.187" cy="285.597" r="44.454"/>
<circle fill="#FFFFFF" cx="51.188" cy="283.969" r="40.898"/>
<circle fill="none" stroke="#000000" stroke-width="1.4978" stroke-miterlimit="3.864" cx="51.188" cy="283.969" r="40.898"/>
<g>
	<defs>
		<path id="XMLID_19_" d="M15.174,283.021c0-21.585,17.498-39.086,39.085-39.086c21.588,0,39.088,17.501,39.088,39.086    c0,21.587-17.5,39.088-39.088,39.088C32.672,322.109,15.174,304.608,15.174,283.021"/>
	</defs>
	<clipPath id="XMLID_42_">
		<use xlink:href="#XMLID_19_"/>
	</clipPath>
	<polyline clip-path="url(#XMLID_42_)" fill="#E7E7E8" points="62.786,230.126 64.811,228.76 108.526,293.569 106.5,294.938"/>
	<polyline clip-path="url(#XMLID_42_)" fill="#E3E4E5" points="60.76,231.492 62.786,230.126 106.5,294.938 104.476,296.304"/>
	<polyline clip-path="url(#XMLID_42_)" fill="#E1E2E3" points="58.732,232.858 60.76,231.492 104.476,296.304 102.451,297.67"/>
	<polyline clip-path="url(#XMLID_42_)" fill="#DEDFE1" points="56.708,234.224 58.732,232.858 102.451,297.67 100.422,299.033"/>
	<polyline clip-path="url(#XMLID_42_)" fill="#DBDCDD" points="54.683,235.59 56.708,234.224 100.422,299.033 98.397,300.401"/>
	<polyline clip-path="url(#XMLID_42_)" fill="#D9DADB" points="52.658,236.958 54.683,235.59 98.397,300.401 96.373,301.768"/>
	<polyline clip-path="url(#XMLID_42_)" fill="#D6D7D9" points="50.633,238.322 52.658,236.958 96.373,301.768 94.348,303.134"/>
	<polyline clip-path="url(#XMLID_42_)" fill="#D4D5D6" points="48.608,239.688 50.633,238.322 94.348,303.134 92.323,304.5"/>
	<polyline clip-path="url(#XMLID_42_)" fill="#D0D2D3" points="46.583,241.054 48.608,239.688 92.323,304.5 90.298,305.865"/>
	<polyline clip-path="url(#XMLID_42_)" fill="#CECFD1" points="44.557,242.422 46.583,241.054 90.298,305.865 88.272,307.231"/>
	<polyline clip-path="url(#XMLID_42_)" fill="#CBCDCF" points="42.532,243.788 44.557,242.422 88.272,307.231 86.248,308.598"/>
	<polyline clip-path="url(#XMLID_42_)" fill="#C8CACB" points="40.508,245.151 42.532,243.788 86.248,308.598 84.222,309.964"/>
	<polyline clip-path="url(#XMLID_42_)" fill="#C5C7C9" points="38.479,246.518 40.508,245.151 84.222,309.964 82.197,311.332"/>
	<polyline clip-path="url(#XMLID_42_)" fill="#C3C5C7" points="36.455,247.886 38.479,246.518 82.197,311.332 80.173,312.695"/>
	<polyline clip-path="url(#XMLID_42_)" fill="#C0C1C3" points="34.43,249.251 36.455,247.886 80.173,312.695 78.145,314.062"/>
	<polyline clip-path="url(#XMLID_42_)" fill="#BDBFC1" points="32.404,250.618 34.43,249.251 78.145,314.062 76.119,315.428"/>
	<polyline clip-path="url(#XMLID_42_)" fill="#BBBCBF" points="30.379,251.983 32.404,250.618 76.119,315.428 74.094,316.796"/>
	<polyline clip-path="url(#XMLID_42_)" fill="#B8BABC" points="28.354,253.35 30.379,251.983 74.094,316.796 72.069,318.161"/>
	<polyline clip-path="url(#XMLID_42_)" fill="#B5B7B9" points="26.33,254.715 28.354,253.35 72.069,318.161 70.044,319.525"/>
	<polyline clip-path="url(#XMLID_42_)" fill="#B2B4B7" points="24.305,256.082 26.33,254.715 70.044,319.525 68.019,320.892"/>
	<polyline clip-path="url(#XMLID_42_)" fill="#B0B2B4" points="22.278,257.447 24.305,256.082 68.019,320.892 65.995,322.26"/>
	<polyline clip-path="url(#XMLID_42_)" fill="#ADAFB1" points="20.254,258.813 22.278,257.447 65.995,322.26 63.97,323.625"/>
	<polyline clip-path="url(#XMLID_42_)" fill="#AAACAF" points="18.229,260.179 20.254,258.813 63.97,323.625 61.943,324.991"/>
	<polyline clip-path="url(#XMLID_42_)" fill="#A8AAAC" points="16.201,261.545 18.229,260.179 61.943,324.991 59.919,326.357"/>
	<polyline clip-path="url(#XMLID_42_)" fill="#A5A7A9" points="14.176,262.911 16.201,261.545 59.919,326.357 57.894,327.724"/>
	<polyline clip-path="url(#XMLID_42_)" fill="#A2A4A7" points="12.151,264.277 14.176,262.911 57.894,327.724 55.867,329.089"/>
	<polyline clip-path="url(#XMLID_42_)" fill="#A0A2A5" points="10.126,265.646 12.151,264.277 55.867,329.089 53.84,330.455"/>
	<polyline clip-path="url(#XMLID_42_)" fill="#9DA0A2" points="8.101,267.009 10.126,265.646 53.84,330.455 51.816,331.821"/>
	<polyline clip-path="url(#XMLID_42_)" fill="#9A9D9F" points="6.076,268.375 8.101,267.009 51.816,331.821 49.791,333.189"/>
	<polyline clip-path="url(#XMLID_42_)" fill="#989A9D" points="4.051,269.741 6.076,268.375 49.791,333.189 47.766,334.553"/>
	<polyline clip-path="url(#XMLID_42_)" fill="#96989B" points="2.026,271.11 4.051,269.741 47.766,334.553 45.741,335.919"/>
	<polyline clip-path="url(#XMLID_42_)" fill="#939598" points="0,272.476 2.026,271.11 45.741,335.919 43.716,337.285"/>
</g>
<circle fill="none" stroke="#000000" stroke-width="1.4978" stroke-miterlimit="3.864" cx="54.261" cy="283.021" r="39.087"/>
<circle fill="#FFFFFF" cx="53.629" cy="278.403" r="29.553"/>
<circle fill="none" stroke="#000000" stroke-width="1.629" stroke-miterlimit="3.864" cx="53.629" cy="278.403" r="29.553"/>
<g>
	<defs>
		<path id="XMLID_21_" d="M27.332,278.455c0-15.084,12.227-27.31,27.31-27.31c15.083,0,27.311,12.226,27.311,27.31    c0,15.081-12.227,27.309-27.311,27.309C39.559,305.764,27.332,293.535,27.332,278.455"/>
	</defs>
	<clipPath id="XMLID_43_">
		<use xlink:href="#XMLID_21_"/>
	</clipPath>
	<polyline clip-path="url(#XMLID_43_)" fill="#939598" points="41.242,312.85 38.923,313.742 19.342,262.737 21.662,261.846"/>
	<polyline clip-path="url(#XMLID_43_)" fill="#989A9D" points="43.56,311.963 41.242,312.85 21.662,261.846 23.979,260.956"/>
	<polyline clip-path="url(#XMLID_43_)" fill="#9D9FA1" points="45.879,311.07 43.56,311.963 23.979,260.956 26.299,260.066"/>
	<polyline clip-path="url(#XMLID_43_)" fill="#A1A3A6" points="48.197,310.184 45.879,311.07 26.299,260.066 28.617,259.174"/>
	<polyline clip-path="url(#XMLID_43_)" fill="#A6A8AB" points="50.517,309.291 48.197,310.184 28.617,259.174 30.936,258.284"/>
	<polyline clip-path="url(#XMLID_43_)" fill="#ABADB0" points="52.833,308.401 50.517,309.291 30.936,258.284 33.255,257.397"/>
	<polyline clip-path="url(#XMLID_43_)" fill="#B0B2B4" points="55.154,307.513 52.833,308.401 33.255,257.397 35.573,256.504"/>
	<polyline clip-path="url(#XMLID_43_)" fill="#B5B7B9" points="57.471,306.623 55.154,307.513 35.573,256.504 37.893,255.613"/>
	<polyline clip-path="url(#XMLID_43_)" fill="#BABCBE" points="59.791,305.73 57.471,306.623 37.893,255.613 40.21,254.725"/>
	<polyline clip-path="url(#XMLID_43_)" fill="#BFC1C3" points="62.108,304.843 59.791,305.73 40.21,254.725 42.53,253.833"/>
	<polyline clip-path="url(#XMLID_43_)" fill="#C4C5C8" points="64.426,303.951 62.108,304.843 42.53,253.833 44.848,252.946"/>
	<polyline clip-path="url(#XMLID_43_)" fill="#C9CACC" points="66.746,303.061 64.426,303.951 44.848,252.946 47.167,252.054"/>
	<polyline clip-path="url(#XMLID_43_)" fill="#CECFD1" points="69.063,302.171 66.746,303.061 47.167,252.054 49.484,251.164"/>
	<polyline clip-path="url(#XMLID_43_)" fill="#D4D5D6" points="71.383,301.281 69.063,302.171 49.484,251.164 51.804,250.274"/>
	<polyline clip-path="url(#XMLID_43_)" fill="#D8D9DA" points="73.701,300.392 71.383,301.281 51.804,250.274 54.121,249.385"/>
	<polyline clip-path="url(#XMLID_43_)" fill="#DDDFE0" points="76.02,299.502 73.701,300.392 54.121,249.385 56.441,248.493"/>
	<polyline clip-path="url(#XMLID_43_)" fill="#E2E3E4" points="78.337,298.61 76.02,299.502 56.441,248.493 58.758,247.605"/>
	<polyline clip-path="url(#XMLID_43_)" fill="#E7E8E9" points="80.657,297.723 78.337,298.61 58.758,247.605 61.078,246.713"/>
	<polyline clip-path="url(#XMLID_43_)" fill="#EDEDEE" points="82.974,296.831 80.657,297.723 61.078,246.713 63.398,245.826"/>
	<polyline clip-path="url(#XMLID_43_)" fill="#F2F2F3" points="85.294,295.941 82.974,296.831 63.398,245.826 65.714,244.934"/>
	<polyline clip-path="url(#XMLID_43_)" fill="#F7F7F8" points="87.614,295.052 85.294,295.941 65.714,244.934 68.033,244.044"/>
	<polyline clip-path="url(#XMLID_43_)" fill="#FFFFFF" points="89.931,294.162 87.614,295.052 68.033,244.044 70.351,243.155"/>
</g>
<circle fill="none" stroke="#000000" stroke-width="1.629" stroke-miterlimit="3.864" cx="54.642" cy="278.455" r="27.31"/>
<g>
	<defs>
		<path id="XMLID_23_" d="M29.986,278.403c0-13.058,10.586-23.642,23.642-23.642c13.059,0,23.643,10.584,23.643,23.642    c0,13.059-10.584,23.645-23.643,23.645C40.572,302.048,29.986,291.462,29.986,278.403"/>
	</defs>
	<clipPath id="XMLID_44_">
		<use xlink:href="#XMLID_23_"/>
	</clipPath>
	<path clip-path="url(#XMLID_44_)" fill="#E7E7E8" d="M79.287,278.398L79.287,278.398c0,14.165-11.498,25.658-25.659,25.658   c-14.162,0-25.657-11.493-25.657-25.658c0-14.162,11.495-25.656,25.657-25.656C67.789,252.743,79.287,264.236,79.287,278.398    M82.011,278.302c0-15.651-12.704-28.356-28.357-28.356c-15.654,0-28.359,12.705-28.359,28.356   c0,15.654,12.705,28.359,28.359,28.359C69.307,306.661,82.011,293.956,82.011,278.302"/>
	<path clip-path="url(#XMLID_44_)" fill="#D9DBDC" d="M76.585,278.398L76.585,278.398c0,12.674-10.286,22.958-22.957,22.958   c-12.673,0-22.957-10.284-22.957-22.958c0-12.67,10.283-22.956,22.957-22.956C66.299,255.443,76.585,265.728,76.585,278.398    M79.311,278.302c0-14.162-11.495-25.655-25.657-25.655c-14.164,0-25.659,11.493-25.659,25.655   c0,14.165,11.495,25.658,25.659,25.658C67.816,303.96,79.311,292.467,79.311,278.302"/>
	<path clip-path="url(#XMLID_44_)" fill="#CDCED0" d="M73.884,278.398L73.884,278.398c0,11.182-9.076,20.258-20.256,20.258   c-11.183,0-20.259-9.076-20.259-20.258s9.076-20.254,20.259-20.254C64.808,258.144,73.884,267.217,73.884,278.398 M76.61,278.452   c0-12.673-10.285-22.958-22.957-22.958c-12.673,0-22.958,10.285-22.958,22.958c0,12.673,10.285,22.955,22.958,22.955   C66.326,301.407,76.61,291.125,76.61,278.452"/>
	<path clip-path="url(#XMLID_44_)" fill="#C0C2C4" d="M71.183,278.398L71.183,278.398c0,9.69-7.865,17.558-17.555,17.558   c-9.692,0-17.557-7.867-17.557-17.558c0-9.689,7.865-17.554,17.557-17.554C63.318,260.844,71.183,268.709,71.183,278.398    M73.908,278.452c0-11.184-9.076-20.258-20.254-20.258c-11.183,0-20.257,9.074-20.257,20.258c0,11.179,9.074,20.255,20.257,20.255   C64.833,298.707,73.908,289.631,73.908,278.452"/>
	<path clip-path="url(#XMLID_44_)" fill="#B3B5B7" d="M68.482,278.398L68.482,278.398c0,8.201-6.655,14.854-14.854,14.854   c-8.202,0-14.856-6.653-14.856-14.854c0-8.198,6.654-14.854,14.856-14.854C61.827,263.545,68.482,270.201,68.482,278.398    M71.208,278.452c0-9.69-7.866-17.555-17.554-17.555c-9.69,0-17.556,7.864-17.556,17.555c0,9.689,7.866,17.555,17.556,17.555   C63.342,296.007,71.208,288.142,71.208,278.452"/>
	<path clip-path="url(#XMLID_44_)" fill="#A7A9AC" d="M65.781,278.398L65.781,278.398c0,6.71-5.446,12.154-12.153,12.154   c-6.708,0-12.156-5.444-12.156-12.154c0-6.708,5.447-12.15,12.156-12.15C60.335,266.248,65.781,271.69,65.781,278.398    M68.359,278.452c0-8.2-6.655-14.854-14.854-14.854c-8.199,0-14.854,6.654-14.854,14.854c0,8.198,6.655,14.854,14.854,14.854   C61.704,293.306,68.359,286.65,68.359,278.452"/>
	<path clip-path="url(#XMLID_44_)" fill="#9B9DA0" d="M63.08,278.398L63.08,278.398c0,5.22-4.235,9.453-9.452,9.453   c-5.218,0-9.454-4.233-9.454-9.453c0-5.217,4.236-9.45,9.454-9.45C58.844,268.948,63.08,273.182,63.08,278.398 M65.806,278.452   c0-6.709-5.443-12.154-12.152-12.154c-6.709,0-12.153,5.444-12.153,12.154c0,6.709,5.444,12.153,12.153,12.153   C60.362,290.605,65.806,285.161,65.806,278.452"/>
	<path clip-path="url(#XMLID_44_)" fill="#8F9194" d="M60.379,278.398L60.379,278.398c0,3.726-3.025,6.753-6.751,6.753   c-3.728,0-6.753-3.027-6.753-6.753c0-3.728,3.026-6.75,6.753-6.75C57.354,271.649,60.379,274.671,60.379,278.398 M63.105,278.452   c0-5.22-4.233-9.453-9.452-9.453c-5.22,0-9.453,4.233-9.453,9.453c0,5.217,4.233,9.45,9.453,9.45   C58.872,287.902,63.105,283.669,63.105,278.452"/>
	<path clip-path="url(#XMLID_44_)" fill="#848688" d="M57.679,278.398L57.679,278.398c0,2.237-1.815,4.052-4.051,4.052   c-2.237,0-4.052-1.815-4.052-4.052c0-2.233,1.814-4.051,4.052-4.051C55.863,274.347,57.679,276.165,57.679,278.398 M60.404,278.452   c0-3.729-3.025-6.753-6.75-6.753c-3.729,0-6.752,3.024-6.752,6.753c0,3.725,3.022,6.75,6.752,6.75   C57.379,285.202,60.404,282.177,60.404,278.452"/>
	<path clip-path="url(#XMLID_44_)" fill="#797A7D" d="M54.977,278.398L54.977,278.398c0,0.748-0.604,1.349-1.349,1.349   c-0.747,0-1.352-0.602-1.352-1.349c0-0.744,0.605-1.351,1.352-1.351C54.374,277.047,54.977,277.654,54.977,278.398 M57.703,278.302   c0-2.234-1.814-4.049-4.049-4.049c-2.237,0-4.051,1.815-4.051,4.049c0,2.237,1.814,4.052,4.051,4.052   C55.888,282.354,57.703,280.539,57.703,278.302"/>
	<path clip-path="url(#XMLID_44_)" fill="#6D6F71" d="M55.002,278.302c0-0.744-0.604-1.351-1.349-1.351   c-0.747,0-1.351,0.607-1.351,1.351c0,0.747,0.604,1.352,1.351,1.352C54.398,279.654,55.002,279.049,55.002,278.302"/>
</g>
<circle fill="none" stroke="#000000" stroke-width="1.629" stroke-miterlimit="3.864" cx="53.628" cy="278.403" r="23.643"/>
<g>
	<defs>
		<polyline id="XMLID_25_" points="53.635,306.743 44,333.923 31.726,329.567 41.361,302.392 53.635,306.743"/>
	</defs>
	<clipPath id="XMLID_45_">
		<use xlink:href="#XMLID_25_"/>
	</clipPath>
	<polyline clip-path="url(#XMLID_45_)" points="51.529,305.486 53.805,306.183 45.214,334.282 42.937,333.586"/>
	<polyline clip-path="url(#XMLID_45_)" fill="#4F5051" points="49.253,304.789 51.529,305.486 42.937,333.586 40.661,332.893"/>
	<polyline clip-path="url(#XMLID_45_)" fill="#717375" points="46.979,304.094 49.253,304.789 40.661,332.893 38.386,332.196"/>
	<polyline clip-path="url(#XMLID_45_)" fill="#8F9194" points="44.701,303.399 46.979,304.094 38.386,332.196 36.109,331.5"/>
	<polyline clip-path="url(#XMLID_45_)" fill="#AFB1B4" points="42.426,302.703 44.701,303.399 36.109,331.5 33.835,330.804"/>
	<polyline clip-path="url(#XMLID_45_)" fill="#D1D3D4" points="40.151,302.007 42.426,302.703 33.835,330.804 31.56,330.109"/>
</g>
<rect x="28.262" y="311.643" transform="matrix(0.3341, -0.9425, 0.9425, 0.3341, -271.452, 252.083)" fill="none" stroke="#000000" stroke-width="1.629" stroke-miterlimit="3.864" width="28.837" height="13.024"/>
<path fill="#FFFFFF" d="M145.21,22.162c0,0,10.14,0.641,12.064,14.307c1.923,13.666-0.962,13.344-0.962,13.344  s-11.426,6.265-29.575,8.857c-4.487,0.642-8.856-8.657-10.137-12.383c-1.283-3.726-3.088-9.177,1.602-12.062  C122.89,31.339,133.79,25.368,145.21,22.162"/>
<g>
	<defs>
		<path id="XMLID_27_" d="M145.21,22.162c0,0,10.14,0.641,12.064,14.307c1.923,13.666-0.962,13.344-0.962,13.344    s-11.426,6.265-29.575,8.857c-4.487,0.642-8.856-8.657-10.137-12.383c-1.283-3.726-3.088-9.177,1.602-12.062    C122.89,31.339,133.79,25.368,145.21,22.162"/>
	</defs>
	<clipPath id="XMLID_46_">
		<use xlink:href="#XMLID_27_"/>
	</clipPath>
	<path clip-path="url(#XMLID_46_)" fill="none" stroke="#000000" stroke-width="1.629" stroke-miterlimit="3.864" d="   M142.007,23.791c0,0,10.085,0.642,12.009,14.308c1.924,13.662-0.96,13.342-0.96,13.342"/>
</g>
<path fill="none" stroke="#000000" stroke-width="1.629" stroke-miterlimit="3.864" d="M145.21,22.162  c0,0,10.14,0.641,12.064,14.307c1.923,13.666-0.962,13.344-0.962,13.344s-11.426,6.265-29.575,8.857  c-4.487,0.642-8.856-8.657-10.137-12.383c-1.283-3.726-3.088-9.177,1.602-12.062C122.89,31.339,133.79,25.368,145.21,22.162z"/>
<path d="M320.925,135.968c0.021,0.054,8.434,20.434,8.104,43.782c-0.328,23.454-9.524,50.132-44.929,61.944  c-29.503,9.839-61.04-0.28-84.963-12.605c-23.979-12.353-40.693-27.122-40.736-27.162l2.218-2.426c0,0,4.104,3.625,11.152,8.769  c29.853,21.791,73.52,42.924,111.259,30.335c42.788-14.273,48.17-52.531,38.862-88.679c-2.004-7.781-4.046-12.73-4.046-12.73  L320.925,135.968"/>
<path fill="#D1D3D4" d="M114.676,41.279c2.124,0-26.368,8.856-35.868,34.264c-7.837,20.966,25.574,91.267,116.101,186.281  l7.729-12.161C112.111,154.646,80.09,95.498,90.23,75.542c10.138-19.958,31.698-23.166,29.575-23.166c0,0,2.003-3.646,0.841-7.05  C119.484,41.92,114.676,41.279,114.676,41.279"/>
<g>
	<defs>
		<path id="XMLID_29_" d="M114.676,41.279c2.124,0-26.368,8.856-35.868,34.264c-7.837,20.966,25.574,91.267,116.101,186.281    l7.729-12.161C112.111,154.646,80.09,95.498,90.23,75.542c10.138-19.958,31.698-23.166,29.575-23.166c0,0,2.003-3.646,0.841-7.05    C119.484,41.92,114.676,41.279,114.676,41.279"/>
	</defs>
	<clipPath id="XMLID_47_">
		<use xlink:href="#XMLID_29_"/>
	</clipPath>
	<path clip-path="url(#XMLID_47_)" fill="#FFFFFF" d="M98.431,130.705c0,0,37.343,68.543,95.686,124.028l2.822-3.989   C196.939,250.743,144.28,203.766,98.431,130.705"/>
</g>
<path fill="none" stroke="#000000" stroke-width="1.629" stroke-miterlimit="3.864" d="M114.676,41.279  c2.124,0-26.368,8.856-35.868,34.264c-7.837,20.966,25.574,91.267,116.101,186.281l7.729-12.161  C112.111,154.646,80.09,95.498,90.23,75.542c10.138-19.958,31.698-23.166,29.575-23.166c0,0,2.003-3.646,0.841-7.05  C119.484,41.92,114.676,41.279,114.676,41.279z"/>
<path d="M48.085,335.315c-0.342,1.036-15.839,48.519-15.839,64.939c0,24.125,10.895,58.587,35.777,73.44  c43.027,25.688,67.275-62.993,163.643,18.145c14.013,11.796,32.647,29.854,49.233,37.338c28.852,13.014,65.159,0.498,75.952-18.935  c22.047-39.69,12.32-73.465,6.729-87.723c-4.896-12.492-39.118-76.37-50.594-97.691c-21.963,6.001-49.863-1.144-80.407-23.373  c-16.092-11.716-31.818-25.838-44.839-40.979c0,0,2.746-8.329,6.94-11.428c3.414-2.524,10.326-3.453,10.326-3.453  c3.808,4.419,69.505,77.139,107.973,54.767c39.781-23.135,21.62-109.23,20.674-113.291c0,0,6.276-5.027,11.102-5.967  c4.262-0.829,11.101,0.81,11.101,0.81s5.972,25.635,5.521,54.999c-0.562,36.542-10.991,62.934-28.199,77.34  c4.622,8.588,12.794,23.813,21.297,39.894c29.644,56.04,58.903,101.26,22.302,167.16c-17.513,31.53-67.502,45.674-105.251,28.644  c-41.3-18.635-79.915-83.544-128.543-67.95c-28.802,9.238-54.94,30.189-86.64,11.262C21.61,472.532,9.455,428.225,9.455,400.255  c0-17.925,10.997-53.925,16.985-72.08c0,0,7.928-0.972,12.518,0.714C43.044,330.388,48.085,335.315,48.085,335.315z"/>
<path fill="none" stroke="#000000" stroke-width="1.629" stroke-miterlimit="3.864" d="M48.085,335.315  c-0.342,1.036-15.839,48.519-15.839,64.939c0,24.125,10.895,58.587,35.777,73.44c43.027,25.688,67.275-62.993,163.643,18.145  c14.013,11.796,32.647,29.854,49.233,37.338c28.852,13.014,65.159,0.498,75.952-18.935c22.047-39.69,12.32-73.465,6.729-87.723  c-4.896-12.492-39.118-76.37-50.594-97.691c-21.963,6.001-49.863-1.144-80.407-23.373c-16.092-11.716-31.818-25.838-44.839-40.979  c0,0,2.746-8.329,6.94-11.428c3.414-2.524,10.326-3.453,10.326-3.453c3.808,4.419,69.505,77.139,107.973,54.767  c39.781-23.135,21.62-109.23,20.674-113.291c0,0,6.276-5.027,11.102-5.967c4.262-0.829,11.101,0.81,11.101,0.81  s5.972,25.635,5.521,54.999c-0.562,36.542-10.991,62.934-28.199,77.34c4.622,8.588,12.794,23.813,21.297,39.894  c29.644,56.04,58.903,101.26,22.302,167.16c-17.513,31.53-67.502,45.674-105.251,28.644c-41.3-18.635-79.915-83.544-128.543-67.95  c-28.802,9.238-54.94,30.189-86.64,11.262C21.61,472.532,9.455,428.225,9.455,400.255c0-17.925,10.997-53.925,16.985-72.08  c0,0,7.928-0.972,12.518,0.714C43.044,330.388,48.085,335.315,48.085,335.315z"/>
<path fill="#FFFFFF" d="M46.9,476.702c0,0,7.273,12.357,26.613,16.414c10.764,2.258,24.353,1.13,24.353,1.13  s-16.96-2.068-27.178-5.649C60.899,485.166,46.9,476.702,46.9,476.702"/>
<path fill="#FFFFFF" d="M361.167,524.248c18.671-16.414,20.402-45.285,20.402-45.285s7.872,24.354-14.753,48.141  c-22.624,23.789-47.544,15.283-47.544,15.283S340.982,541.994,361.167,524.248"/>
<path fill="#FFFFFF" d="M258.104,309.649c0,0,19.27,14.155,48.706,10.768c0,0-1.691-3.355-15.278-3.955  c-13.59-0.598-19.84-4.552-22.661-5.681C266.048,309.649,258.104,309.649,258.104,309.649"/>
<path fill="#BCBEC0" d="M147.334,200.33l19.116,23.604c0,0,1.923-9.99,12.102-3.204l-19.2-21.838  C159.352,198.892,151.936,192.189,147.334,200.33z"/>
<path fill="none" stroke="#000000" stroke-width="1.629" stroke-miterlimit="3.864" d="M147.334,200.33l19.116,23.604  c0,0,1.923-9.99,12.102-3.204l-19.2-21.838C159.352,198.892,151.936,192.189,147.334,200.33z"/>
<path fill="#D1D3D4" d="M352.354,185.979l-13.067,5.173C297.01,47.569,251.776,15.792,245.085,12.926  c-6.697-2.87-46.983,6.246-46.983,6.246l-6.219-11.941c0,0,32.715-7.286,41.914-6.33c9.199,0.956,16.849,0,25.093,9.2  c8.244,9.199,43.967,37.709,77.186,127.372C344.459,160.096,349.98,176.747,352.354,185.979z"/>
<path fill="none" stroke="#000000" stroke-width="1.629" stroke-miterlimit="3.864" d="M352.354,185.979l-13.067,5.173  C297.01,47.569,251.776,15.792,245.085,12.926c-6.697-2.87-46.983,6.246-46.983,6.246l-6.219-11.941c0,0,32.715-7.286,41.914-6.33  c9.199,0.956,16.849,0,25.093,9.2c8.244,9.199,43.967,37.709,77.186,127.372C344.459,160.096,349.98,176.747,352.354,185.979z"/>
<path fill="#BCBEC0" d="M331.19,171.721c2.526-18.468,11.899-19.48,11.899-19.48l-9.654-26.608c0,0-14.147-8.813-14.988,12.18  L331.19,171.721z"/>
<path fill="none" stroke="#000000" stroke-width="1.629" stroke-miterlimit="3.864" d="M331.19,171.721  c2.526-18.468,11.899-19.48,11.899-19.48l-9.654-26.608c0,0-14.147-8.813-14.988,12.18L331.19,171.721z"/>
<path fill="#FFFFFF" d="M253.623,16.472c0,0,17.384,10.288,29.403,30.017c12.017,19.732,25.376,47.791,25.376,47.791  s-26.082-45.615-34.713-57.126C268.659,30.448,253.623,16.472,253.623,16.472"/>
<path fill="#FFFFFF" d="M203.598,25.689c-2.886,3.848-20.596,14.949-27.331,16.55c-6.731,1.604-9.817-2.565-11.743-6.09  c-1.923-3.528-5.017-16.77,2.247-21.239c13.023-8.016,27.65-10.581,27.65-10.581S207.122,7.656,203.598,25.689"/>
<g>
	<defs>
		<path id="XMLID_31_" d="M203.598,25.689c-2.886,3.848-20.596,14.949-27.331,16.55c-6.731,1.604-9.817-2.565-11.743-6.09    c-1.923-3.528-5.017-16.77,2.247-21.239c13.023-8.016,27.65-10.581,27.65-10.581S207.122,7.656,203.598,25.689"/>
	</defs>
	<clipPath id="XMLID_48_">
		<use xlink:href="#XMLID_31_"/>
	</clipPath>
	
		<ellipse clip-path="url(#XMLID_48_)" fill="none" stroke="#000000" stroke-width="1.629" stroke-miterlimit="3.864" cx="171.039" cy="28.196" rx="10.039" ry="14.568"/>
</g>
<path fill="none" stroke="#000000" stroke-width="1.629" stroke-miterlimit="3.864" d="M203.598,25.689  c-2.886,3.848-20.596,14.949-27.331,16.55c-6.731,1.604-9.817-2.565-11.743-6.09c-1.923-3.528-5.017-16.77,2.247-21.239  c13.023-8.016,27.65-10.581,27.65-10.581S207.122,7.656,203.598,25.689z"/>
<path d="M169.013,28.196c0-2.979,1.267-5.393,2.828-5.393c1.559,0,2.825,2.414,2.825,5.393c0,2.975-1.266,5.389-2.825,5.389  C170.279,33.584,169.013,31.17,169.013,28.196z"/>
<path fill="none" stroke="#000000" stroke-width="1.629" stroke-miterlimit="3.864" d="M169.013,28.196  c0-2.979,1.267-5.393,2.828-5.393c1.559,0,2.825,2.414,2.825,5.393c0,2.975-1.266,5.389-2.825,5.389  C170.279,33.584,169.013,31.17,169.013,28.196z"/>
</svg>